<?xml version="1.0" encoding="utf-8"?>
<!-- Generator: Adobe Illustrator 25.0.0, SVG Export Plug-In . SVG Version: 6.00 Build 0)  -->
<svg version="1.1" id="Ebene_1" xmlns="http://www.w3.org/2000/svg" xmlns:xlink="http://www.w3.org/1999/xlink" x="0px" y="0px"
	 viewBox="0 0 350 50" style="enable-background:new 0 0 350 50;" xml:space="preserve">
<style type="text/css">
	.st0{fill:#C30A32;}
	.st1{fill:#1E2D5A;}
	.st2{fill:#E3E6ED;}
	.st3{fill:#A5BEDC;}
</style>
<polygon class="st3" points="350,25 314.3,0 314.3,12.5 0,12.5 0,37.5 314.3,37.5 314.3,50 "/>
<g>
	<g>
		<path class="st1" d="M19.5,20.6L17,22.8v-2l2.5-2.2h1.8v12.8h-1.8V20.6z"/>
		<path class="st1" d="M26.9,31.4h-2.2v-2.2h2.2V31.4z"/>
	</g>
	<g>
		<path class="st1" d="M39,18.6c2.1,0,3.7,1.2,3.7,3.3c0,1.4-0.8,2.5-2,2.9c1.4,0.5,2.2,1.6,2.2,3.1c0,2.3-1.5,3.5-3.8,3.5h-4.9
			V18.6H39z M35.2,19.5v5h3.6c1.5,0,2.8-0.7,2.8-2.5s-1.3-2.5-2.8-2.5H35.2z M35.2,25.3v5.3H39c1.7,0,2.9-1,2.9-2.6
			s-1.2-2.6-2.9-2.6H35.2z"/>
		<path class="st1" d="M53.7,19.5h-6.8v5.1h5.8v0.9h-5.8v5.2h6.8v0.9h-7.8V18.6h7.8V19.5z"/>
		<path class="st1" d="M60.7,18.6c1.4,0,2.4,0.4,3.2,1.2c1.2,1.2,1.2,3.3,1.2,5.2c0,1.9,0,4-1.2,5.2c-0.8,0.8-1.9,1.2-3.2,1.2h-4.3
			V18.6H60.7z M57.4,19.5v11.1h3.1c1,0,2-0.2,2.8-1c1-1,1-2.9,1-4.6s0-3.5-1-4.6c-0.7-0.8-1.7-1-2.8-1H57.4z"/>
		<path class="st1" d="M77,31.4h-1l-1.1-3.1h-6l-1.1,3.1h-1l4.7-12.8h0.9L77,31.4z M69.2,27.4h5.4l-2.7-7.5L69.2,27.4z"/>
		<path class="st1" d="M84.3,18.6c2.1,0,3.7,1.2,3.7,3.4c0,1.9-1.2,3.2-3,3.5l3.1,5.9h-1.1l-3.1-5.9h-3.5v5.9h-1V18.6H84.3z
			 M80.3,19.5v5.2h3.8c1.7,0,2.8-0.8,2.8-2.6c0-1.8-1.2-2.6-2.8-2.6H80.3z"/>
		<path class="st1" d="M98.7,19.5h-6.8v5.3h5.8v0.9h-5.8v5.8h-1V18.6h7.8V19.5z"/>
		<path class="st1" d="M113.1,19.5h-6.8v5.1h5.8v0.9h-5.8v5.2h6.8v0.9h-7.8V18.6h7.8V19.5z"/>
		<path class="st1" d="M120.8,18.6c2.1,0,3.7,1.2,3.7,3.4c0,1.9-1.2,3.2-3,3.5l3.1,5.9h-1.1l-3.1-5.9h-3.5v5.9h-1V18.6H120.8z
			 M116.9,19.5v5.2h3.8c1.7,0,2.8-0.8,2.8-2.6c0-1.8-1.2-2.6-2.8-2.6H116.9z"/>
		<path class="st1" d="M138.2,31.4h-1V20.8l-3.9,7.9h-1l-4-7.9v10.6h-1V18.6h1l4.5,9l4.4-9h1V31.4z"/>
		<path class="st1" d="M142.7,31.4h-1V18.6h1V31.4z"/>
		<path class="st1" d="M153.8,19.5h-3.8v12h-1v-12h-3.8v-0.9h8.6V19.5z"/>
		<path class="st1" d="M164.2,19.5h-3.8v12h-1v-12h-3.8v-0.9h8.6V19.5z"/>
		<path class="st1" d="M174.5,19.5h-6.8v5.1h5.8v0.9h-5.8v5.2h6.8v0.9h-7.8V18.6h7.8V19.5z"/>
		<path class="st1" d="M178.2,30.5h6.8v0.9h-7.8V18.6h1V30.5z"/>
		<path class="st1" d="M196.8,31.4h-1l-7.4-11.1v11.1h-1V18.6h1l7.4,11.1V18.6h1V31.4z"/>
	</g>
</g>
</svg>
