<?xml version="1.0" encoding="utf-8"?>
<!-- Generator: Adobe Illustrator 25.0.0, SVG Export Plug-In . SVG Version: 6.00 Build 0)  -->
<svg version="1.1" id="Ebene_1" xmlns="http://www.w3.org/2000/svg" xmlns:xlink="http://www.w3.org/1999/xlink" x="0px" y="0px"
	 viewBox="0 0 350 50" style="enable-background:new 0 0 350 50;" xml:space="preserve">
<style type="text/css">
	.st0{fill:#C30A32;}
	.st1{fill:#1E2D5A;}
	.st2{fill:#E3E6ED;}
	.st3{fill:#A5BEDC;}
</style>
<polygon class="st0" points="350,25 314.3,0 314.3,12.5 0,12.5 0,37.5 314.3,37.5 314.3,50 "/>
<g>
	<g>
		<path class="st2" d="M17,27.8h1.8c0.1,1.4,1,1.9,2.1,1.9c1.2,0,2.1-0.8,2.1-2.1c0-1.3-0.7-2.1-2.1-2.1h-0.3v-1.6h0.3
			c1.3,0,1.9-0.8,1.9-1.9c0-1.3-0.8-2-1.9-2c-1.1,0-1.8,0.7-1.9,1.8h-1.8c0.1-2.2,1.7-3.5,3.8-3.5c2.2,0,3.7,1.5,3.7,3.6
			c0,1.4-0.6,2.2-1.6,2.7c1.1,0.5,1.8,1.4,1.8,3c0,2.5-1.8,3.7-3.9,3.7C18.9,31.4,17.1,30.3,17,27.8z"/>
		<path class="st2" d="M29,31.3h-2.2v-2.2H29V31.3z"/>
	</g>
	<g>
		<path class="st2" d="M44.6,22.1h-1c-0.4-1.8-1.7-2.9-3.4-2.9c-0.9,0-1.8,0.3-2.4,1c-0.9,0.9-1,2-1,4.7c0,2.7,0.1,3.7,1,4.7
			c0.7,0.7,1.5,1,2.4,1c1,0,2-0.4,2.7-1.2c0.6-0.7,0.8-1.4,0.8-2.5v-1.2h-3.4v-0.9h4.4v2.1c0,1.4-0.3,2.3-1,3.1
			c-0.8,0.9-2.1,1.5-3.4,1.5c-1.3,0-2.4-0.5-3.1-1.2C36,29,35.9,28,35.9,24.9c0-3.1,0.1-4.1,1.3-5.3c0.8-0.8,1.8-1.2,3.1-1.2
			C42.5,18.4,44.3,19.9,44.6,22.1z"/>
		<path class="st2" d="M55.5,19.3h-6.8v5.1h5.8v0.9h-5.8v5.2h6.8v0.9h-7.8V18.5h7.8V19.3z"/>
		<path class="st2" d="M59.2,30.4H66v0.9h-7.8V18.5h1V30.4z"/>
		<path class="st2" d="M72.8,18.5c1.3,0,2.4,0.4,3.2,1.2c1.2,1.2,1.2,3.3,1.2,5.2c0,1.9,0,4-1.2,5.2c-0.8,0.8-1.9,1.2-3.2,1.2h-4.3
			V18.5H72.8z M69.5,19.3v11.1h3.1c1,0,2-0.2,2.8-1c1-1,1-2.9,1-4.6s0-3.5-1-4.6c-0.7-0.8-1.7-1-2.8-1H69.5z"/>
		<path class="st2" d="M91.7,19.7l-0.6,0.6c-0.8-0.7-1.6-1.2-3.1-1.2c-1.9,0-3,1-3,2.6c0,0.7,0.2,1.3,0.6,1.7
			c0.5,0.4,1.1,0.6,1.8,0.7l1.5,0.2c1.2,0.2,1.7,0.4,2.3,0.9c0.7,0.6,1.1,1.4,1.1,2.5c0,2.2-1.6,3.5-4.3,3.5c-1.9,0-3.1-0.5-4.3-1.7
			l0.7-0.7c1.2,1.2,2.1,1.5,3.6,1.5c2,0,3.3-1,3.3-2.6c0-0.8-0.2-1.4-0.7-1.8c-0.5-0.4-0.8-0.5-1.9-0.7l-1.5-0.2
			c-1-0.1-1.7-0.4-2.3-0.9c-0.7-0.6-1-1.4-1-2.4c0-2.1,1.5-3.5,4-3.5C89.6,18.4,90.6,18.8,91.7,19.7z"/>
		<path class="st2" d="M99.8,18.5c2.2,0,3.9,1.3,3.9,3.7s-1.7,3.7-3.9,3.7h-3.7v5.4h-1V18.5H99.8z M96.1,19.3V25h3.6
			c1.8,0,3-0.9,3-2.8s-1.2-2.8-3-2.8H96.1z"/>
		<path class="st2" d="M114.3,31.3h-1l-1.1-3.1h-6l-1.1,3.1h-1l4.7-12.8h0.9L114.3,31.3z M106.5,27.3h5.4l-2.7-7.5L106.5,27.3z"/>
		<path class="st2" d="M121.6,18.5c2.1,0,3.7,1.2,3.7,3.4c0,1.9-1.2,3.2-3,3.5l3.1,5.9h-1.1l-3.1-5.9h-3.5v5.9h-1V18.5H121.6z
			 M117.6,19.3v5.2h3.8c1.7,0,2.8-0.8,2.8-2.6c0-1.8-1.2-2.6-2.8-2.6H117.6z"/>
		<path class="st2" d="M136,19.3h-6.8v5.1h5.8v0.9h-5.8v5.2h6.8v0.9h-7.8V18.5h7.8V19.3z"/>
		<path class="st2" d="M148.1,31.3h-1l-7.4-11.1v11.1h-1V18.5h1l7.4,11.1V18.5h1V31.3z"/>
		<path class="st2" d="M152.8,31.3h-1.2v-1.2h1.2V31.3z M152.6,27.8h-0.8l-0.1-9.4h1L152.6,27.8z"/>
	</g>
</g>
</svg>
