<?xml version="1.0" encoding="utf-8"?>
<!-- Generator: Adobe Illustrator 25.0.0, SVG Export Plug-In . SVG Version: 6.00 Build 0)  -->
<svg version="1.1" id="Ebene_1" xmlns="http://www.w3.org/2000/svg" xmlns:xlink="http://www.w3.org/1999/xlink" x="0px" y="0px"
	 viewBox="0 0 350 50" style="enable-background:new 0 0 350 50;" xml:space="preserve">
<style type="text/css">
	.st0{fill:#C30A32;}
	.st1{fill:#1E2D5A;}
	.st2{fill:#E3E6ED;}
	.st3{fill:#A5BEDC;}
</style>
<polygon class="st1" points="350,25 314.3,0 314.3,12.5 0,12.5 0,37.5 314.3,37.5 314.3,50 "/>
<g>
	<g>
		<path class="st2" d="M17,29.7l4.9-6c0.5-0.6,0.7-1.1,0.7-1.7c0-1.2-0.7-1.9-1.9-1.9c-1,0-1.9,0.5-1.9,2H17c0-2.2,1.5-3.6,3.7-3.6
			c2.2,0,3.7,1.4,3.7,3.6c0,1.1-0.4,1.8-1.2,2.8l-4,4.9h5.2v1.6H17V29.7z"/>
		<path class="st2" d="M28.8,31.3h-2.2v-2.2h2.2V31.3z"/>
	</g>
	<g>
		<path class="st2" d="M44.4,22.1h-1c-0.4-1.8-1.7-2.9-3.4-2.9c-0.9,0-1.8,0.3-2.4,1c-0.9,0.9-1,2-1,4.7c0,2.7,0.1,3.7,1,4.7
			c0.7,0.7,1.5,1,2.4,1c1,0,2-0.4,2.7-1.2c0.6-0.7,0.8-1.4,0.8-2.5v-1.2H40v-0.9h4.4v2.1c0,1.4-0.3,2.3-1,3.1
			c-0.8,0.9-2.1,1.5-3.4,1.5c-1.3,0-2.4-0.5-3.1-1.2c-1.2-1.2-1.3-2.2-1.3-5.3c0-3.1,0.1-4.1,1.3-5.3c0.8-0.8,1.8-1.2,3.1-1.2
			C42.2,18.4,44,19.9,44.4,22.1z"/>
		<path class="st2" d="M56.1,27.1c0,2.5-1.8,4.3-4.4,4.3s-4.4-1.8-4.4-4.3v-8.7h1V27c0,2.1,1.4,3.5,3.4,3.5s3.4-1.4,3.4-3.5v-8.5h1
			V27.1z M50.4,17.1h-1v-1.4h1V17.1z M54.1,17.1h-1v-1.4h1V17.1z"/>
		<path class="st2" d="M68.9,31.3h-1l-7.4-11.1v11.1h-1V18.5h1l7.4,11.1V18.5h1V31.3z"/>
		<path class="st2" d="M79.5,19.8l-0.6,0.6c-0.8-0.7-1.6-1.2-3.1-1.2c-1.9,0-3,1-3,2.6c0,0.7,0.2,1.3,0.6,1.7
			c0.5,0.4,1.1,0.6,1.8,0.7l1.5,0.2c1.2,0.2,1.7,0.4,2.3,0.9c0.7,0.6,1.1,1.4,1.1,2.5c0,2.2-1.6,3.5-4.3,3.5c-1.9,0-3.1-0.5-4.3-1.7
			l0.7-0.7c1.2,1.2,2.1,1.5,3.6,1.5c2,0,3.3-1,3.3-2.6c0-0.8-0.2-1.4-0.7-1.8c-0.5-0.4-0.8-0.5-1.9-0.7l-1.5-0.2
			c-1-0.1-1.7-0.4-2.3-0.9c-0.7-0.6-1-1.4-1-2.4c0-2.1,1.5-3.5,4-3.5C77.4,18.4,78.4,18.8,79.5,19.8z"/>
		<path class="st2" d="M90.4,19.3h-3.8v12h-1v-12h-3.8v-0.9h8.6V19.3z"/>
		<path class="st2" d="M93.9,31.3h-1V18.5h1V31.3z"/>
		<path class="st2" d="M105.8,22.1h-1c-0.4-1.8-1.7-2.9-3.4-2.9c-0.9,0-1.8,0.3-2.4,1c-0.9,0.9-1,2-1,4.7c0,2.7,0.1,3.7,1,4.7
			c0.7,0.7,1.5,1,2.4,1c1,0,2-0.4,2.7-1.2c0.6-0.7,0.8-1.4,0.8-2.5v-1.2h-3.4v-0.9h4.4v2.1c0,1.4-0.3,2.3-1,3.1
			c-0.8,0.9-2.1,1.5-3.4,1.5c-1.3,0-2.4-0.5-3.1-1.2c-1.2-1.2-1.3-2.2-1.3-5.3c0-3.1,0.1-4.1,1.3-5.3c0.8-0.8,1.8-1.2,3.1-1.2
			C103.7,18.4,105.4,19.9,105.8,22.1z"/>
		<path class="st2" d="M116.1,19.8l-0.6,0.6c-0.8-0.7-1.6-1.2-3.1-1.2c-1.9,0-3,1-3,2.6c0,0.7,0.2,1.3,0.6,1.7
			c0.4,0.4,1.1,0.6,1.8,0.7l1.5,0.2c1.2,0.2,1.7,0.4,2.3,0.9c0.7,0.6,1.1,1.4,1.1,2.5c0,2.2-1.6,3.5-4.3,3.5c-1.9,0-3.1-0.5-4.3-1.7
			l0.7-0.7c1.2,1.2,2.1,1.5,3.6,1.5c2,0,3.3-1,3.3-2.6c0-0.8-0.2-1.4-0.7-1.8c-0.5-0.4-0.8-0.5-1.9-0.7l-1.5-0.2
			c-1-0.1-1.7-0.4-2.3-0.9c-0.7-0.6-1-1.4-1-2.4c0-2.1,1.5-3.5,4-3.5C114,18.4,115,18.8,116.1,19.8z"/>
		<path class="st2" d="M127,19.3h-3.8v12h-1v-12h-3.8v-0.9h8.6V19.3z"/>
		<path class="st2" d="M137.3,19.3h-6.8v5.1h5.8v0.9h-5.8v5.2h6.8v0.9h-7.8V18.5h7.8V19.3z"/>
		<path class="st2" d="M147.2,19.8l-0.6,0.6c-0.8-0.7-1.6-1.2-3.1-1.2c-1.9,0-3,1-3,2.6c0,0.7,0.2,1.3,0.6,1.7
			c0.5,0.4,1.1,0.6,1.8,0.7l1.5,0.2c1.2,0.2,1.7,0.4,2.3,0.9c0.7,0.6,1.1,1.4,1.1,2.5c0,2.2-1.6,3.5-4.3,3.5c-1.9,0-3.1-0.5-4.3-1.7
			l0.7-0.7c1.2,1.2,2.1,1.5,3.6,1.5c2,0,3.3-1,3.3-2.6c0-0.8-0.2-1.4-0.7-1.8c-0.5-0.4-0.8-0.5-1.9-0.7l-1.5-0.2
			c-1-0.1-1.7-0.4-2.3-0.9c-0.7-0.6-1-1.4-1-2.4c0-2.1,1.5-3.5,4-3.5C145.1,18.4,146.1,18.8,147.2,19.8z"/>
		<path class="st2" d="M163.5,31.3h-1l-1.1-3.1h-6l-1.1,3.1h-1l4.7-12.8h0.9L163.5,31.3z M155.6,27.3h5.4l-2.7-7.5L155.6,27.3z"/>
		<path class="st2" d="M175.2,31.3h-1l-7.4-11.1v11.1h-1V18.5h1l7.4,11.1V18.5h1V31.3z"/>
		<path class="st2" d="M187.1,22.1h-1c-0.4-1.8-1.7-2.9-3.4-2.9c-0.9,0-1.8,0.3-2.4,1c-0.9,0.9-1,2-1,4.7c0,2.7,0.1,3.7,1,4.7
			c0.7,0.7,1.5,1,2.4,1c1,0,2-0.4,2.7-1.2c0.6-0.7,0.8-1.4,0.8-2.5v-1.2h-3.4v-0.9h4.4v2.1c0,1.4-0.3,2.3-1,3.1
			c-0.8,0.9-2.1,1.5-3.4,1.5c-1.3,0-2.4-0.5-3.1-1.2c-1.2-1.2-1.3-2.2-1.3-5.3c0-3.1,0.1-4.1,1.3-5.3c0.8-0.8,1.8-1.2,3.1-1.2
			C185,18.4,186.7,19.9,187.1,22.1z"/>
		<path class="st2" d="M198,19.3h-6.8v5.1h5.8v0.9h-5.8v5.2h6.8v0.9h-7.8V18.5h7.8V19.3z"/>
		<path class="st2" d="M205.4,18.5c2.1,0,3.7,1.2,3.7,3.3c0,1.4-0.8,2.5-2,2.9c1.4,0.5,2.2,1.6,2.2,3.1c0,2.3-1.5,3.5-3.8,3.5h-4.9
			V18.5H205.4z M201.7,19.3v5h3.6c1.5,0,2.8-0.7,2.8-2.5s-1.3-2.5-2.8-2.5H201.7z M201.7,25.2v5.3h3.8c1.7,0,2.9-1,2.9-2.6
			s-1.2-2.6-2.9-2.6H201.7z"/>
		<path class="st2" d="M219.5,19.6c1.2,1.2,1.3,2.2,1.3,5.3c0,3.1-0.1,4.1-1.3,5.3c-0.8,0.8-1.8,1.2-3.1,1.2s-2.4-0.5-3.1-1.2
			c-1.2-1.2-1.3-2.2-1.3-5.3c0-3.1,0.1-4.1,1.3-5.3c0.8-0.8,1.8-1.2,3.1-1.2S218.8,18.8,219.5,19.6z M214,20.2c-0.9,0.9-1,2-1,4.7
			c0,2.7,0.1,3.7,1,4.7c0.7,0.7,1.5,1,2.4,1c0.9,0,1.8-0.3,2.4-1c0.9-0.9,1-2,1-4.7c0-2.7-0.1-3.7-1-4.7c-0.7-0.7-1.5-1-2.4-1
			C215.5,19.2,214.7,19.6,214,20.2z"/>
		<path class="st2" d="M231.1,19.3h-3.8v12h-1v-12h-3.8v-0.9h8.6V19.3z"/>
		<path class="st2" d="M245.4,19.3h-6.8v5.3h5.8v0.9h-5.8v5.8h-1V18.5h7.8V19.3z"/>
		<path class="st2" d="M248.9,31.3h-1V18.5h1V31.3z"/>
		<path class="st2" d="M261.8,31.3h-1l-7.4-11.1v11.1h-1V18.5h1l7.4,11.1V18.5h1V31.3z"/>
		<path class="st2" d="M269.6,18.5c1.3,0,2.4,0.4,3.2,1.2c1.2,1.2,1.2,3.3,1.2,5.2c0,1.9,0,4-1.2,5.2c-0.8,0.8-1.9,1.2-3.2,1.2h-4.3
			V18.5H269.6z M266.3,19.3v11.1h3.1c1,0,2-0.2,2.8-1c1-1,1-2.9,1-4.6s0-3.5-1-4.6c-0.7-0.8-1.7-1-2.8-1H266.3z"/>
		<path class="st2" d="M284.9,19.3h-6.8v5.1h5.8v0.9h-5.8v5.2h6.8v0.9h-7.8V18.5h7.8V19.3z"/>
		<path class="st2" d="M297,31.3h-1l-7.4-11.1v11.1h-1V18.5h1l7.4,11.1V18.5h1V31.3z"/>
	</g>
</g>
</svg>
