<?xml version="1.0" encoding="utf-8"?>
<!-- Generator: Adobe Illustrator 25.0.0, SVG Export Plug-In . SVG Version: 6.00 Build 0)  -->
<svg version="1.1" id="Ebene_1" xmlns="http://www.w3.org/2000/svg" xmlns:xlink="http://www.w3.org/1999/xlink" x="0px" y="0px"
	 viewBox="0 0 1050 50" style="enable-background:new 0 0 1050 50;" xml:space="preserve">
<style type="text/css">
	.st0{fill:#A5BEDC;}
	.st1{fill:#1E2D5A;}
	.st2{fill:#C30A32;}
	.st3{fill:#FFFFFF;}
</style>
<rect y="12.5" class="st0" width="350" height="25"/>
<rect x="350" y="12.5" class="st1" width="350" height="25"/>
<polygon class="st2" points="1050,25 1014.3,0 1014.3,12.5 700,12.5 700,37.5 1014.3,37.5 1014.3,50 "/>
<g>
	<path class="st1" d="M109,18.6c2.4,0,3.9,1.4,3.9,3.5c0,1.4-0.9,2.4-1.7,2.7c1,0.4,1.9,1.4,1.9,3c0,2.4-1.6,3.6-3.9,3.6H104V18.6
		H109z M105.9,20.3V24h2.9c1.2,0,2.1-0.6,2.1-1.8s-0.8-1.8-2.1-1.8H105.9z M105.9,25.8v3.9h3.1c1.4,0,2.1-0.8,2.1-2
		s-0.8-1.9-2.1-1.9H105.9z"/>
	<path class="st1" d="M123.5,20.3h-6.2v3.7h5.3v1.7h-5.3v3.8h6.2v1.7h-8.2V18.6h8.2V20.3z"/>
	<path class="st1" d="M130.1,18.6c1.6,0,2.7,0.5,3.6,1.6c0.9,1.2,1,2.7,1,4.8c0,2.1,0,3.6-1,4.8c-0.9,1.1-2,1.6-3.6,1.6h-4.5V18.6
		H130.1z M127.6,20.3v9.3h2.3c0.9,0,1.7-0.2,2.2-0.9c0.6-0.7,0.7-1.9,0.7-3.8c0-1.9-0.1-3.1-0.7-3.8c-0.5-0.6-1.3-0.9-2.2-0.9H127.6
		z"/>
	<path class="st1" d="M146.6,31.4h-2.1l-0.9-2.6h-5.1l-0.9,2.6h-2.1l4.7-12.8h1.6L146.6,31.4z M139.1,27.2h3.9l-2-5.7L139.1,27.2z"
		/>
	<path class="st1" d="M153.2,18.6c2.4,0,4,1.6,4,3.7c0,1.8-1.1,3-2.6,3.4l3,5.7h-2.3l-2.7-5.4h-2.4v5.4h-1.9V18.6H153.2z
		 M150.2,20.3v4h2.9c1.3,0,2.2-0.7,2.2-2s-0.9-2-2.2-2H150.2z"/>
	<path class="st1" d="M167.8,20.3h-6.2v3.9h5.3V26h-5.3v5.4h-1.9V18.6h8.2V20.3z"/>
	<path class="st1" d="M182,20.3h-6.2v3.7h5.3v1.7h-5.3v3.8h6.2v1.7h-8.2V18.6h8.2V20.3z"/>
	<path class="st1" d="M189.1,18.6c2.4,0,4,1.6,4,3.7c0,1.8-1.1,3-2.6,3.4l3,5.7h-2.3l-2.7-5.4H186v5.4h-1.9V18.6H189.1z M186,20.3v4
		h2.9c1.3,0,2.2-0.7,2.2-2s-0.9-2-2.2-2H186z"/>
	<path class="st1" d="M206.8,31.4h-1.9v-8.6l-3,6.2h-1.4l-3-6.2v8.6h-1.9V18.6h1.9l3.7,8l3.7-8h1.9V31.4z"/>
	<path class="st1" d="M211.5,31.4h-1.9V18.6h1.9V31.4z"/>
	<path class="st1" d="M222.4,20.3h-3.5v11.1h-1.9V20.3h-3.5v-1.7h9V20.3z"/>
	<path class="st1" d="M232.7,20.3h-3.5v11.1h-1.9V20.3h-3.5v-1.7h9V20.3z"/>
	<path class="st1" d="M242.8,20.3h-6.2v3.7h5.3v1.7h-5.3v3.8h6.2v1.7h-8.2V18.6h8.2V20.3z"/>
	<path class="st1" d="M246.9,29.7h6.2v1.7h-8.1V18.6h1.9V29.7z"/>
	<path class="st1" d="M264.6,31.4h-1.8l-5.9-9v9h-1.9V18.6h1.8l5.9,9v-9h1.9V31.4z"/>
	<g>
		<path class="st1" d="M87.7,19.6l-2.3,2.1v-1.1l2.3-2h0.9v12.8h-0.9V19.6z"/>
		<path class="st1" d="M94,31.4h-1.3v-1.3H94V31.4z"/>
	</g>
</g>
<g>
	<g>
		<path class="st3" d="M415.6,22.3h-1.9c-0.3-1.4-1.3-2.2-2.7-2.2c-0.8,0-1.4,0.3-1.9,0.8c-0.6,0.7-0.8,1.5-0.8,4
			c0,2.5,0.1,3.3,0.8,4c0.5,0.5,1.1,0.8,1.9,0.8c0.8,0,1.6-0.3,2.1-0.9c0.5-0.5,0.6-1.2,0.6-2V26h-2.7v-1.7h4.7v2
			c0,1.7-0.3,2.7-1.2,3.6c-1,1-2.2,1.5-3.5,1.5c-1.4,0-2.5-0.5-3.3-1.3c-1.2-1.3-1.3-2.5-1.3-5.2c0-2.7,0.1-4,1.3-5.2
			c0.8-0.8,1.9-1.3,3.3-1.3C413.6,18.4,415.2,20.2,415.6,22.3z"/>
		<path class="st3" d="M427,27c0,2.6-2,4.4-4.6,4.4s-4.6-1.8-4.6-4.4v-8.5h1.9v8.4c0,1.7,1,2.8,2.6,2.8s2.7-1.1,2.7-2.8v-8.4h1.9V27
			z M421.3,17.1h-1.7v-1.9h1.7V17.1z M425.2,17.1h-1.7v-1.9h1.7V17.1z"/>
		<path class="st3" d="M439.3,31.3h-1.8l-5.9-9v9h-1.9V18.5h1.8l5.9,9v-9h1.9V31.3z"/>
		<path class="st3" d="M449.9,19.8l-1.2,1.2c-0.8-0.8-1.7-1-2.8-1c-1.5,0-2.3,0.8-2.3,2c0,0.5,0.1,0.9,0.5,1.2
			c0.3,0.3,0.7,0.5,1.4,0.6l1.5,0.2c1.2,0.2,1.8,0.5,2.4,1c0.7,0.6,1,1.5,1,2.6c0,2.4-1.9,3.8-4.6,3.8c-1.9,0-3.3-0.5-4.5-1.7
			l1.3-1.3c0.9,0.9,2,1.2,3.3,1.2c1.7,0,2.6-0.7,2.6-2c0-0.6-0.1-1-0.5-1.3c-0.3-0.3-0.8-0.5-1.4-0.5l-1.5-0.2c-1-0.2-1.9-0.5-2.4-1
			c-0.6-0.6-1-1.4-1-2.5c0-2.2,1.6-3.7,4.3-3.7C447.6,18.4,448.8,18.8,449.9,19.8z"/>
		<path class="st3" d="M460.6,20.2h-3.5v11.1h-1.9V20.2h-3.5v-1.7h9V20.2z"/>
		<path class="st3" d="M464.5,31.3h-1.9V18.5h1.9V31.3z"/>
		<path class="st3" d="M476.1,22.3h-1.9c-0.3-1.4-1.3-2.2-2.7-2.2c-0.8,0-1.4,0.3-1.9,0.8c-0.6,0.7-0.8,1.5-0.8,4
			c0,2.5,0.1,3.3,0.8,4c0.5,0.5,1.1,0.8,1.9,0.8c0.8,0,1.6-0.3,2.1-0.9c0.5-0.5,0.6-1.2,0.6-2V26h-2.7v-1.7h4.7v2
			c0,1.7-0.3,2.7-1.2,3.6c-1,1-2.2,1.5-3.5,1.5c-1.4,0-2.5-0.5-3.3-1.3c-1.2-1.3-1.3-2.5-1.3-5.2c0-2.7,0.1-4,1.3-5.2
			c0.8-0.8,1.9-1.3,3.3-1.3C474.2,18.4,475.8,20.2,476.1,22.3z"/>
		<path class="st3" d="M486.3,19.8l-1.2,1.2c-0.8-0.8-1.7-1-2.8-1c-1.5,0-2.3,0.8-2.3,2c0,0.5,0.1,0.9,0.5,1.2
			c0.3,0.3,0.7,0.5,1.4,0.6l1.5,0.2c1.2,0.2,1.8,0.5,2.4,1c0.7,0.6,1,1.5,1,2.6c0,2.4-1.9,3.8-4.6,3.8c-1.9,0-3.3-0.5-4.5-1.7
			l1.3-1.3c0.9,0.9,2,1.2,3.3,1.2c1.7,0,2.6-0.7,2.6-2c0-0.6-0.1-1-0.5-1.3c-0.3-0.3-0.8-0.5-1.4-0.5l-1.5-0.2c-1-0.2-1.9-0.5-2.4-1
			c-0.6-0.6-1-1.4-1-2.5c0-2.2,1.6-3.7,4.3-3.7C484,18.4,485.2,18.8,486.3,19.8z"/>
		<path class="st3" d="M497,20.2h-3.5v11.1h-1.9V20.2H488v-1.7h9V20.2z"/>
		<path class="st3" d="M507.1,20.2h-6.2V24h5.3v1.7h-5.3v3.8h6.2v1.7h-8.2V18.5h8.2V20.2z"/>
		<path class="st3" d="M517.4,19.8l-1.2,1.2c-0.8-0.8-1.7-1-2.8-1c-1.5,0-2.3,0.8-2.3,2c0,0.5,0.1,0.9,0.5,1.2
			c0.3,0.3,0.7,0.5,1.4,0.6l1.5,0.2c1.2,0.2,1.8,0.5,2.4,1c0.7,0.6,1,1.5,1,2.6c0,2.4-1.9,3.8-4.6,3.8c-1.9,0-3.3-0.5-4.5-1.7
			l1.3-1.3c0.9,0.9,2,1.2,3.3,1.2c1.7,0,2.6-0.7,2.6-2c0-0.6-0.1-1-0.5-1.3c-0.3-0.3-0.8-0.5-1.4-0.5l-1.5-0.2c-1-0.2-1.9-0.5-2.4-1
			c-0.6-0.6-1-1.4-1-2.5c0-2.2,1.6-3.7,4.3-3.7C515.1,18.4,516.3,18.8,517.4,19.8z"/>
		<path class="st3" d="M533.5,31.3h-2.1l-0.9-2.6h-5.1l-0.9,2.6h-2.1l4.7-12.8h1.6L533.5,31.3z M526,27.1h3.9l-2-5.7L526,27.1z"/>
		<path class="st3" d="M544.8,31.3h-1.8l-5.9-9v9h-1.9V18.5h1.8l5.9,9v-9h1.9V31.3z"/>
		<path class="st3" d="M556.5,22.3h-1.9c-0.3-1.4-1.3-2.2-2.7-2.2c-0.8,0-1.4,0.3-1.9,0.8c-0.6,0.7-0.8,1.5-0.8,4
			c0,2.5,0.1,3.3,0.8,4c0.5,0.5,1.1,0.8,1.9,0.8c0.8,0,1.6-0.3,2.1-0.9c0.5-0.5,0.6-1.2,0.6-2V26h-2.7v-1.7h4.7v2
			c0,1.7-0.3,2.7-1.2,3.6c-1,1-2.2,1.5-3.5,1.5c-1.4,0-2.5-0.5-3.3-1.3c-1.2-1.3-1.3-2.5-1.3-5.2c0-2.7,0.1-4,1.3-5.2
			c0.8-0.8,1.9-1.3,3.3-1.3C554.5,18.4,556.1,20.2,556.5,22.3z"/>
		<path class="st3" d="M567,20.2h-6.2V24h5.3v1.7h-5.3v3.8h6.2v1.7h-8.2V18.5h8.2V20.2z"/>
		<path class="st3" d="M574.2,18.5c2.4,0,3.9,1.4,3.9,3.5c0,1.4-0.9,2.4-1.7,2.7c1,0.4,1.9,1.4,1.9,3c0,2.4-1.6,3.6-3.9,3.6h-5.2
			V18.5H574.2z M571.1,20.2v3.7h2.9c1.2,0,2.1-0.6,2.1-1.8s-0.8-1.8-2.1-1.8H571.1z M571.1,25.6v3.9h3.1c1.3,0,2.1-0.8,2.1-2
			s-0.8-1.9-2.1-1.9H571.1z"/>
		<path class="st3" d="M588.1,19.7c1.3,1.3,1.3,2.5,1.3,5.2c0,2.7,0,4-1.3,5.2c-0.8,0.8-1.9,1.3-3.3,1.3s-2.5-0.5-3.3-1.3
			c-1.3-1.3-1.3-2.5-1.3-5.2c0-2.7,0-4,1.3-5.2c0.8-0.8,1.9-1.3,3.3-1.3S587.3,18.8,588.1,19.7z M582.9,20.9c-0.6,0.7-0.8,1.5-0.8,4
			c0,2.5,0.1,3.3,0.8,4c0.5,0.5,1.1,0.8,1.9,0.8c0.8,0,1.4-0.3,1.9-0.8c0.6-0.7,0.8-1.4,0.8-4c0-2.5-0.1-3.3-0.8-4
			c-0.5-0.5-1.1-0.8-1.9-0.8C584,20.1,583.4,20.4,582.9,20.9z"/>
		<path class="st3" d="M599.8,20.2h-3.5v11.1h-1.9V20.2h-3.5v-1.7h9V20.2z"/>
		<path class="st3" d="M613.8,20.2h-6.2v3.9h5.3v1.7h-5.3v5.4h-1.9V18.5h8.2V20.2z"/>
		<path class="st3" d="M617.7,31.3h-1.9V18.5h1.9V31.3z"/>
		<path class="st3" d="M630.1,31.3h-1.8l-5.9-9v9h-1.9V18.5h1.8l5.9,9v-9h1.9V31.3z"/>
		<path class="st3" d="M637.3,18.5c1.6,0,2.7,0.5,3.6,1.6c0.9,1.2,1,2.7,1,4.8c0,2.1,0,3.6-1,4.8c-0.9,1.1-2,1.6-3.6,1.6h-4.5V18.5
			H637.3z M634.8,20.2v9.3h2.3c0.9,0,1.7-0.2,2.2-0.9c0.6-0.7,0.7-1.9,0.7-3.8c0-1.9-0.1-3.1-0.7-3.8c-0.5-0.6-1.3-0.9-2.2-0.9
			H634.8z"/>
		<path class="st3" d="M652.5,20.2h-6.2V24h5.3v1.7h-5.3v3.8h6.2v1.7h-8.2V18.5h8.2V20.2z"/>
		<path class="st3" d="M664.3,31.3h-1.8l-5.9-9v9h-1.9V18.5h1.8l5.9,9v-9h1.9V31.3z"/>
	</g>
	<g>
		<path class="st3" d="M385.7,30.6l5.1-6.8c0.5-0.6,0.7-1.3,0.7-2c0-1.5-0.9-2.6-2.5-2.6c-1.3,0-2.5,0.8-2.5,2.6h-0.9
			c0-1.9,1.3-3.4,3.4-3.4c2.1,0,3.4,1.4,3.4,3.4c0,1-0.2,1.6-0.9,2.5l-4.8,6.3h5.7v0.8h-6.8V30.6z"/>
		<path class="st3" d="M396.3,31.4H395v-1.3h1.3V31.4z"/>
	</g>
</g>
<g>
	<g>
		<path class="st3" d="M819,22.3h-1.9c-0.3-1.4-1.3-2.2-2.7-2.2c-0.8,0-1.4,0.3-1.9,0.8c-0.6,0.7-0.8,1.5-0.8,4c0,2.5,0.1,3.3,0.8,4
			c0.5,0.5,1.1,0.8,1.9,0.8c0.8,0,1.6-0.3,2.1-0.9c0.5-0.5,0.6-1.2,0.6-2V26h-2.7v-1.7h4.7v2c0,1.7-0.3,2.7-1.2,3.6
			c-1,1-2.2,1.5-3.5,1.5c-1.4,0-2.5-0.5-3.3-1.3c-1.2-1.3-1.3-2.5-1.3-5.2c0-2.7,0.1-4,1.3-5.2c0.8-0.8,1.9-1.3,3.3-1.3
			C817.1,18.4,818.7,20.2,819,22.3z"/>
		<path class="st3" d="M829.6,20.2h-6.2V24h5.3v1.7h-5.3v3.8h6.2v1.7h-8.2V18.5h8.2V20.2z"/>
		<path class="st3" d="M833.7,29.6h6.2v1.7h-8.1V18.5h1.9V29.6z"/>
		<path class="st3" d="M846.2,18.5c1.6,0,2.7,0.5,3.6,1.6c0.9,1.2,1,2.7,1,4.8c0,2.1,0,3.6-1,4.8c-0.9,1.1-2,1.6-3.6,1.6h-4.5V18.5
			H846.2z M843.7,20.2v9.3h2.3c0.9,0,1.7-0.2,2.2-0.9c0.6-0.7,0.7-1.9,0.7-3.8c0-1.9-0.1-3.1-0.7-3.8c-0.5-0.6-1.3-0.9-2.2-0.9
			H843.7z"/>
		<path class="st3" d="M864.9,19.8l-1.2,1.2c-0.8-0.8-1.7-1-2.8-1c-1.5,0-2.3,0.8-2.3,2c0,0.5,0.1,0.9,0.5,1.2
			c0.3,0.3,0.7,0.5,1.4,0.6l1.5,0.2c1.2,0.2,1.8,0.5,2.4,1c0.7,0.6,1,1.5,1,2.6c0,2.4-1.9,3.8-4.6,3.8c-1.9,0-3.3-0.5-4.5-1.7
			l1.3-1.3c0.9,0.9,2,1.2,3.3,1.2c1.7,0,2.6-0.7,2.6-2c0-0.6-0.1-1-0.5-1.3c-0.3-0.3-0.8-0.5-1.4-0.5l-1.5-0.2c-1-0.2-1.9-0.5-2.4-1
			c-0.6-0.6-1-1.4-1-2.5c0-2.2,1.6-3.7,4.3-3.7C862.6,18.4,863.8,18.8,864.9,19.8z"/>
		<path class="st3" d="M872.3,18.5c2.5,0,4.1,1.7,4.1,3.9s-1.6,3.9-4.1,3.9h-2.9v5.1h-1.9V18.5H872.3z M869.4,20.2v4.3h2.8
			c1.4,0,2.3-0.8,2.3-2.1c0-1.4-0.9-2.1-2.3-2.1H869.4z"/>
		<path class="st3" d="M887.1,31.3h-2.1l-0.9-2.6h-5.1l-0.9,2.6h-2.1l4.7-12.8h1.6L887.1,31.3z M879.7,27.1h3.9l-2-5.7L879.7,27.1z"
			/>
		<path class="st3" d="M893.8,18.5c2.4,0,4,1.6,4,3.7c0,1.8-1.1,3-2.6,3.4l3,5.7h-2.3l-2.7-5.4h-2.4v5.4h-1.9V18.5H893.8z
			 M890.8,20.2v4h2.9c1.3,0,2.2-0.7,2.2-2s-0.9-2-2.2-2H890.8z"/>
		<path class="st3" d="M908.4,20.2h-6.2V24h5.3v1.7h-5.3v3.8h6.2v1.7h-8.2V18.5h8.2V20.2z"/>
		<path class="st3" d="M920.2,31.3h-1.8l-5.9-9v9h-1.9V18.5h1.8l5.9,9v-9h1.9V31.3z"/>
		<path class="st3" d="M924.9,27.5h-1.4l-0.4-9h2.2L924.9,27.5z M925.2,31.3h-2v-2h2V31.3z"/>
	</g>
	<g>
		<path class="st3" d="M788.7,28.2h0.9c0.1,1.7,1.4,2.4,2.7,2.4c1.5,0,2.7-1,2.7-2.7c0-1.7-0.8-2.7-2.8-2.7H792v-0.8h0.2
			c1.7,0,2.5-0.9,2.5-2.6c0-1.7-1.1-2.6-2.5-2.6c-1.5,0-2.4,0.9-2.6,2.3h-0.9c0.2-2,1.6-3.2,3.5-3.2c2,0,3.4,1.3,3.4,3.4
			c0,1.4-0.5,2.3-1.8,2.9c1.4,0.5,2.1,1.5,2.1,3.2c0,2.3-1.6,3.5-3.6,3.5C790.3,31.4,788.8,30.4,788.7,28.2z"/>
		<path class="st3" d="M799.8,31.3h-1.3V30h1.3V31.3z"/>
	</g>
</g>
</svg>
