<svg id="LOGO" xmlns="http://www.w3.org/2000/svg" viewBox="0 0 440.54 102.05"><defs><style>.cls-1{fill:#91a0b9;}.cls-2{fill:#1e5587;}.cls-3{fill:#c30a32;}</style></defs><path class="cls-1" d="M186.17,172.7a6.23,6.23,0,0,1-4.5,1.65h-6v-18h6a6.22,6.22,0,0,1,4.5,1.64c1.82,1.82,1.74,4.68,1.74,7.11S188,170.88,186.17,172.7Zm-1-13.76a5.19,5.19,0,0,0-3.87-1.39H177v15.58h4.35a5.19,5.19,0,0,0,3.87-1.39c1.44-1.47,1.34-4.65,1.34-6.65S186.65,160.41,185.21,158.94Z" transform="translate(-73.85 -81.64)"/><path class="cls-1" d="M194.57,174.35v-18h1.36v18Z" transform="translate(-73.85 -81.64)"/><path class="cls-1" d="M203.3,174.35v-18h10.93v1.21h-9.56v7.11h8.14v1.21h-8.14v7.26h9.56v1.22Z" transform="translate(-73.85 -81.64)"/><path class="cls-1" d="M224.56,174.35v-18h1.37v18Z" transform="translate(-73.85 -81.64)"/><path class="cls-1" d="M247.19,174.35V159.5l-5.46,12.32h-1.37L234.8,159.5v14.85h-1.37v-18h1.37l6.27,13.88,6.12-13.88h1.37v18Z" transform="translate(-73.85 -81.64)"/><path class="cls-1" d="M269.82,174.35V159.5l-5.46,12.32H263l-5.56-12.32v14.85h-1.37v-18h1.37l6.27,13.88,6.12-13.88h1.37v18Z" transform="translate(-73.85 -81.64)"/><path class="cls-1" d="M288.19,172.65a6.41,6.41,0,0,1-9,0c-1.64-1.64-1.67-3.24-1.67-7.31s0-5.66,1.67-7.31a6.43,6.43,0,0,1,9,0c1.64,1.65,1.67,3.24,1.67,7.31S289.83,171,288.19,172.65Zm-1.09-13.86a4.89,4.89,0,0,0-6.83,0c-1.29,1.29-1.39,2.68-1.39,6.55s.1,5.26,1.39,6.55a4.89,4.89,0,0,0,6.83,0c1.29-1.29,1.39-2.68,1.39-6.55S288.39,160.08,287.1,158.79Z" transform="translate(-73.85 -81.64)"/><path class="cls-1" d="M303.27,174.35h-6.83v-18h6.63c3,0,5.21,1.72,5.21,4.7a4.13,4.13,0,0,1-2.81,4.05,4.39,4.39,0,0,1,3.09,4.35C308.56,172.65,306.46,174.35,303.27,174.35Zm-.35-16.8h-5.11v7h5.11c2.17,0,4-1,4-3.49S305.09,157.55,302.92,157.55Zm.2,8.2h-5.31v7.38h5.31c2.45,0,4.07-1.39,4.07-3.69S305.57,165.75,303.12,165.75Z" transform="translate(-73.85 -81.64)"/><path class="cls-1" d="M316.06,174.35v-18h1.37v18Z" transform="translate(-73.85 -81.64)"/><path class="cls-1" d="M324.93,174.35v-18h1.37v16.79h9.56v1.22Z" transform="translate(-73.85 -81.64)"/><path class="cls-1" d="M342.58,174.35v-18h1.36v18Z" transform="translate(-73.85 -81.64)"/><path class="cls-1" d="M351.45,174.35v-18h10.92v1.21h-9.56v7.11H361v1.21h-8.15v7.26h9.56v1.22Z" transform="translate(-73.85 -81.64)"/><path class="cls-1" d="M381.24,174.35l-10.39-15.66v15.66h-1.37v-18h1.37l10.39,15.6v-15.6h1.37v18Z" transform="translate(-73.85 -81.64)"/><path class="cls-1" d="M405.24,174.35h-1.39l-4.25-15.69-4.25,15.69H394l-4.5-18h1.44L394.69,172l4.2-15.65h1.42l4.2,15.65,3.79-15.65h1.44Z" transform="translate(-73.85 -81.64)"/><path class="cls-1" d="M415.93,174.35v-18h10.93v1.21H417.3v7.11h8.14v1.21H417.3v7.26h9.56v1.22Z" transform="translate(-73.85 -81.64)"/><path class="cls-1" d="M440.67,174.35h-6.83v-18h6.63c3,0,5.21,1.72,5.21,4.7a4.15,4.15,0,0,1-2.81,4.05,4.39,4.39,0,0,1,3.09,4.35C446,172.65,443.86,174.35,440.67,174.35Zm-.36-16.8h-5.1v7h5.1c2.18,0,4-1,4-3.49S442.49,157.55,440.31,157.55Zm.21,8.2h-5.31v7.38h5.31c2.45,0,4.07-1.39,4.07-3.69S443,165.75,440.52,165.75Z" transform="translate(-73.85 -81.64)"/><path class="cls-1" d="M458.54,174.5a7.63,7.63,0,0,1-6-2.38l1-1a6.3,6.3,0,0,0,5.11,2.12c2.83,0,4.63-1.36,4.63-3.71a3.24,3.24,0,0,0-1-2.53,4.23,4.23,0,0,0-2.6-1l-2.1-.33a6.27,6.27,0,0,1-3.21-1.32,4.1,4.1,0,0,1-1.42-3.31c0-3,2.15-4.93,5.59-4.93a7.13,7.13,0,0,1,5.19,1.94l-.89.89a5.85,5.85,0,0,0-4.38-1.67c-2.6,0-4.17,1.44-4.17,3.72a2.9,2.9,0,0,0,.94,2.35,5.73,5.73,0,0,0,2.68,1.11l1.95.31A5.74,5.74,0,0,1,463,166a4.45,4.45,0,0,1,1.57,3.5C464.61,172.55,462.28,174.5,458.54,174.5Z" transform="translate(-73.85 -81.64)"/><path class="cls-1" d="M471.72,174.35v-18h1.36v18Z" transform="translate(-73.85 -81.64)"/><path class="cls-1" d="M486.53,157.55v16.8h-1.37v-16.8H479.8v-1.21h12.11v1.21Z" transform="translate(-73.85 -81.64)"/><path class="cls-1" d="M497.66,174.35v-18h10.93v1.21H499v7.11h8.14v1.21H499v7.26h9.56v1.22Z" transform="translate(-73.85 -81.64)"/><path class="cls-2" d="M457.65,150.71V147h3.75v3.75Z" transform="translate(-73.85 -81.64)"/><path class="cls-2" d="M491,150.71l-3.14-8.77H471l-3.15,8.77h-2.94l13.29-36.1h2.43l13.28,36.1Zm-11.56-32.45-7.55,21.24H487Z" transform="translate(-73.85 -81.64)"/><path class="cls-2" d="M503.59,117.05v33.66h-2.74V117.05H490.11v-2.44h24.28v2.44Z" transform="translate(-73.85 -81.64)"/><polygon class="cls-2" points="90.69 32.98 90.69 69.07 96.17 69.07 96.17 53.81 111.17 53.81 111.17 48.9 96.17 48.9 96.17 37.89 113.76 37.89 113.76 32.98 90.69 32.98"/><rect class="cls-2" x="118.59" y="32.98" width="5.48" height="36.1"/><polygon class="cls-2" points="152.29 69.07 135.61 43.67 135.61 69.07 130.13 69.07 130.13 32.98 135.15 32.98 151.83 58.32 151.83 32.98 157.31 32.98 157.31 69.07 152.29 69.07"/><path class="cls-2" d="M255.16,122a7.81,7.81,0,0,0-6.13-2.43h-6.64v26.26H249a7.81,7.81,0,0,0,6.13-2.43c1.88-2.08,1.93-6,1.93-11s0-8.37-1.93-10.45m3.75,25.35a12.88,12.88,0,0,1-9.33,3.4H236.91v-36.1h12.67a12.88,12.88,0,0,1,9.33,3.4c3.91,3.9,3.65,9.18,3.65,14.4s.26,11-3.65,14.9" transform="translate(-73.85 -81.64)"/><polygon class="cls-2" points="221.62 69.07 221.62 39.31 210.67 64 207.94 64 196.78 39.31 196.78 69.07 194.05 69.07 194.05 32.98 196.78 32.98 209.36 60.81 221.62 32.98 224.36 32.98 224.36 69.07 221.62 69.07"/><polygon class="cls-2" points="242.16 54.12 242.16 69.07 239.43 69.07 239.43 54.12 228.78 32.98 231.72 32.98 240.9 51.23 249.87 32.98 252.81 32.98 242.16 54.12"/><polygon class="cls-2" points="277.15 69.07 277.15 53.3 262.5 53.3 262.5 69.07 257.03 69.07 257.03 32.98 262.5 32.98 262.5 48.39 277.15 48.39 277.15 32.98 282.63 32.98 282.63 69.07 277.15 69.07"/><path class="cls-2" d="M380.34,121.46a7.59,7.59,0,0,0-10.75,0c-1.77,1.92-2.12,4-2.12,11.2s.35,9.28,2.12,11.2a7.57,7.57,0,0,0,10.75,0c1.78-1.92,2.13-4,2.13-11.2s-.35-9.28-2.13-11.2m4.16,25.7A13.06,13.06,0,0,1,375,151a12.93,12.93,0,0,1-9.48-3.85c-3.55-3.55-3.5-7.55-3.5-14.5s-.05-11,3.5-14.5a12.93,12.93,0,0,1,9.48-3.85,13.06,13.06,0,0,1,9.53,3.85c3.55,3.55,3.45,7.56,3.45,14.5s.1,11-3.45,14.5" transform="translate(-73.85 -81.64)"/><polygon class="cls-2" points="345.82 69.07 345.82 44.94 337.5 62.53 333.45 62.53 324.93 44.94 324.93 69.07 319.46 69.07 319.46 32.98 324.93 32.98 335.48 55.43 345.82 32.98 351.29 32.98 351.29 69.07 345.82 69.07"/><polygon class="cls-2" points="357.15 32.98 357.15 69.07 380.21 69.07 380.21 64.15 362.62 64.15 362.62 53.3 377.63 53.3 377.63 48.44 362.62 48.44 362.62 37.89 380.21 37.89 380.21 32.98 357.15 32.98"/><path class="cls-3" d="M147.08,119.6V102.79h0v-2.74H130.66v3.25l-5.79-5.74L97.23,125v32.38h23.54V143H129v14.34h23.54V125Zm0,32.3H134.46V137.56H115.29V151.9H102.7V127.23l22.17-21.93,11.26,11.14V105.53h5.48v16.32l5.44,5.38Z" transform="translate(-73.85 -81.64)"/><path class="cls-3" d="M163.88,156.19a45.56,45.56,0,1,1,0-47h6.27a51,51,0,1,0,0,47.05Z" transform="translate(-73.85 -81.64)"/></svg>