<?xml version="1.0" encoding="utf-8"?>
<!-- Generator: Adobe Illustrator 25.0.0, SVG Export Plug-In . SVG Version: 6.00 Build 0)  -->
<svg version="1.1" xmlns="http://www.w3.org/2000/svg" xmlns:xlink="http://www.w3.org/1999/xlink" x="0px" y="0px"
	 viewBox="0 0 200 200" style="enable-background:new 0 0 200 200;" xml:space="preserve">
<style type="text/css">
	.st0{fill:#C7CEDB;}
	.st1{fill:#A5BCDC;}
	.st2{fill:#1F5686;}
	.st3{fill:#E3E6ED;}
	.st4{fill:#1C2F5C;}
	.st5{clip-path:url(#SVGID_2_);fill:#1C2F5C;}
	.st6{clip-path:url(#SVGID_4_);fill:#A5BCDC;}
	.st7{clip-path:url(#SVGID_6_);}
	.st8{clip-path:url(#SVGID_8_);fill:#536887;}
	.st9{clip-path:url(#SVGID_10_);fill:#FFFFFF;}
	.st10{clip-path:url(#SVGID_12_);fill:#FFFFFF;}
	.st11{clip-path:url(#SVGID_14_);}
	.st12{clip-path:url(#SVGID_16_);}
	.st13{fill:#FFFFFF;}
	.st14{clip-path:url(#SVGID_18_);fill:#A5BCDC;}
	.st15{clip-path:url(#SVGID_20_);fill:#1C2F5C;}
	.st16{clip-path:url(#SVGID_22_);}
	.st17{fill:#0D0802;}
</style>
<g id="HG_FARBE">
	<rect class="st2" width="200" height="200"/>
</g>
<g id="ILLUS">
	<g>
		<defs>
			<rect id="SVGID_17_" width="200" height="200"/>
		</defs>
		<clipPath id="SVGID_2_">
			<use xlink:href="#SVGID_17_"  style="overflow:visible;"/>
		</clipPath>
		<path style="clip-path:url(#SVGID_2_);fill:#A5BCDC;" d="M210.9,112.8V65h-0.1v-7.8h-46.6v3.9v5.3l-16.4-16.3l-8,7.9
			c-7.4-15.7-23.4-26.6-41.9-26.6c-25.6,0-46.3,20.8-46.3,46.3c0,18.4,10.8,34.2,26.3,41.7l-8.7,8.7v92.1h51.4h15.6v-40.8h23.4v40.8
			H175h51.4v-92.1L210.9,112.8z M59.3,77.7c0-21.3,17.4-38.7,38.7-38.7c16.4,0,30.4,10.3,36,24.8l-25,24.8h-0.1c0,0,0,0.1,0,0.1
			l-9.2,9.1c-0.6,0.1-1.1,0.1-1.8,0.1c-3.3,0-6-1.2-8-3.4c-1.9-2-2.7-4.1-3-8.7h14v-5.1H86.7v-6.6h14.2v-5.1h-14
			c0.4-4.3,1.2-6.4,3-8.4c2-2.1,4.7-3.4,8-3.4c6,0,9.7,3.8,11,9.4h8.4c-1.9-10.7-9.4-16.7-19.3-16.7c-5.9,0-10.5,2-14,5.5
			c-3.7,3.8-5,7.6-5.3,13.6h-5.3v5.1h5.2v6.6h-5.2V86h5.3c0.3,6.2,1.5,10.1,5.3,13.9c2.4,2.4,5.4,4.1,8.9,4.9l-9,9
			C69.4,108,59.3,94.1,59.3,77.7z M218.7,212.5H175h-7.9v-33.1v-7.7h-7.7h-23.4h-7.7v7.7v33.1h-7.9H76.8v-81.2l71-70.4l11.1,11
			l13,12.9V66.4v-1.6h31.3V65l0.1,7.7v40.1v3.2l2.3,2.2l13.2,13.1V212.5z"/>
	</g>
</g>
</svg>
