<?xml version="1.0" encoding="utf-8"?>
<!-- Generator: Adobe Illustrator 25.0.0, SVG Export Plug-In . SVG Version: 6.00 Build 0)  -->
<svg version="1.1" xmlns="http://www.w3.org/2000/svg" xmlns:xlink="http://www.w3.org/1999/xlink" x="0px" y="0px"
	 viewBox="0 0 200 200" style="enable-background:new 0 0 200 200;" xml:space="preserve">
<style type="text/css">
	.st0{fill:#C7CEDB;}
	.st1{fill:#A5BCDC;}
	.st2{fill:#1F5686;}
	.st3{fill:#E3E6ED;}
	.st4{fill:#1C2F5C;}
	.st5{clip-path:url(#SVGID_2_);fill:#1C2F5C;}
	.st6{clip-path:url(#SVGID_4_);fill:#A5BCDC;}
	.st7{clip-path:url(#SVGID_6_);}
	.st8{clip-path:url(#SVGID_8_);fill:#536887;}
	.st9{clip-path:url(#SVGID_10_);fill:#FFFFFF;}
	.st10{clip-path:url(#SVGID_12_);fill:#FFFFFF;}
	.st11{clip-path:url(#SVGID_14_);}
	.st12{clip-path:url(#SVGID_16_);}
	.st13{fill:#FFFFFF;}
	.st14{clip-path:url(#SVGID_18_);fill:#A5BCDC;}
	.st15{clip-path:url(#SVGID_20_);fill:#1C2F5C;}
	.st16{clip-path:url(#SVGID_22_);}
	.st17{fill:#0D0802;}
</style>
<g id="HG_FARBE">
	<rect class="st2" width="200" height="200"/>
</g>
<g id="ILLUS">
	<g>
		<defs>
			<rect id="SVGID_13_" width="200" height="200"/>
		</defs>
		<clipPath id="SVGID_2_">
			<use xlink:href="#SVGID_13_"  style="overflow:visible;"/>
		</clipPath>
		<g style="clip-path:url(#SVGID_2_);">
			<path class="st4" d="M47.4,152c-13.2,0-24,10.8-24,24c0,13.2,10.8,24,24,24s24-10.8,24-24C71.4,162.7,60.7,152,47.4,152z
				 M47.4,192.3c-9,0-16.4-7.3-16.4-16.4s7.3-16.4,16.4-16.4S63.8,167,63.8,176S56.4,192.3,47.4,192.3z"/>
			<path class="st4" d="M204.9,152c-13.2,0-24,10.8-24,24c0,13.2,10.8,24,24,24s24-10.8,24-24C228.9,162.7,218.1,152,204.9,152z
				 M204.9,192.3c-9,0-16.4-7.3-16.4-16.4s7.3-16.4,16.4-16.4s16.4,7.3,16.4,16.4S213.9,192.3,204.9,192.3z"/>
			<path class="st4" d="M170.8,172.2H81.5c-2.1,0-3.8,1.7-3.8,3.8s1.7,3.8,3.8,3.8h89.3c2.1,0,3.8-1.7,3.8-3.8
				S172.9,172.2,170.8,172.2z"/>
			<path class="st4" d="M89.4,144.9c2.1,0,3.8-1.7,3.8-3.8s-1.7-3.8-3.8-3.8H78.7c-2.1,0-3.8,1.7-3.8,3.8s1.7,3.8,3.8,3.8H89.4z"/>
			<path class="st4" d="M234.3,130.8c-3.4-3.3-6.8-4.8-9.3-5.5c-0.6-10.8-4.2-21.6-9.9-28.6h2.2c2.1,0,3.8-1.7,3.8-3.8
				s-1.7-3.8-3.8-3.8H108.6c-1.2,0-2.2,0.5-3,1.4l-28.2,35l-35,7.7C10.9,140,6,166.8,7.7,180c0.3,1.9,1.9,3.3,3.8,3.3
				c0.2,0,0.3,0,0.5,0c2.1-0.3,3.6-2.2,3.3-4.3c-0.2-1.3-3.6-31.4,28.7-38.5l36.3-8c0.2,0,0.4-0.2,0.6-0.2h140.2c0.7,0,17,1,17,36.2
				c0,2.1,1.7,3.8,3.8,3.8s3.8-1.7,3.8-3.8C245.9,150.9,242,138.2,234.3,130.8z M217.2,124.7H162v-28h39
				C208.8,96.7,216.1,109.8,217.2,124.7z M110.4,96.7h43.9v28H87.8L110.4,96.7z"/>
		</g>
	</g>
</g>
</svg>
