<?xml version="1.0" encoding="utf-8"?>
<!-- Generator: Adobe Illustrator 25.4.1, SVG Export Plug-In . SVG Version: 6.00 Build 0)  -->
<svg version="1.1" id="Ebene_1" xmlns="http://www.w3.org/2000/svg" xmlns:xlink="http://www.w3.org/1999/xlink" x="0px" y="0px"
	 viewBox="0 0 200 200" style="enable-background:new 0 0 200 200;" xml:space="preserve">
<style type="text/css">
	.st0{clip-path:url(#SVGID_00000125580948146930822310000002803700182031687587_);}
	.st1{clip-path:url(#SVGID_00000133516473851430965270000000813698709066219444_);}
	.st2{clip-path:url(#SVGID_00000094596175360408374270000008444542496960990600_);fill:#E3E6ED;}
	.st3{clip-path:url(#SVGID_00000047037914220420285010000008077556130508571049_);}
	.st4{fill:#1E2D5A;}
	.st5{clip-path:url(#SVGID_00000047037914220420285010000008077556130508571049_);fill:#1C2F5C;}
	.st6{fill:#E3E6ED;}
</style>
<g>
	<g>
		<defs>
			<rect id="SVGID_1_" y="0" width="200" height="200"/>
		</defs>
		<clipPath id="SVGID_00000014626238657127693140000012571079493784539523_">
			<use xlink:href="#SVGID_1_"  style="overflow:visible;"/>
		</clipPath>
	</g>
	<g>
		<defs>
			<rect id="SVGID_00000101093654806682503710000006243018736336419769_" y="0" width="200" height="200"/>
		</defs>
		<defs>
			<rect id="SVGID_00000022555955382487622400000014402488100583338920_" y="0" width="200" height="200"/>
		</defs>
		<clipPath id="SVGID_00000070797606812606374500000002533917574317735059_">
			<use xlink:href="#SVGID_00000101093654806682503710000006243018736336419769_"  style="overflow:visible;"/>
		</clipPath>
		
			<clipPath id="SVGID_00000047757555588310120040000005546286224139119543_" style="clip-path:url(#SVGID_00000070797606812606374500000002533917574317735059_);">
			<use xlink:href="#SVGID_00000022555955382487622400000014402488100583338920_"  style="overflow:visible;"/>
		</clipPath>
		<g style="clip-path:url(#SVGID_00000047757555588310120040000005546286224139119543_);">
			<g>
				<g>
					<defs>
						<rect id="SVGID_00000131353586781082511350000010189089174018012804_" y="0" width="200" height="200"/>
					</defs>
					<clipPath id="SVGID_00000098194092220843842750000008329119187688695189_">
						<use xlink:href="#SVGID_00000131353586781082511350000010189089174018012804_"  style="overflow:visible;"/>
					</clipPath>
					
						<rect y="0" style="clip-path:url(#SVGID_00000098194092220843842750000008329119187688695189_);fill:#E3E6ED;" width="200" height="200"/>
				</g>
			</g>
		</g>
	</g>
</g>
<g>
	<defs>
		<rect id="SVGID_00000155119239195291253330000000893123949812882361_" y="0" width="200" height="200"/>
	</defs>
	<clipPath id="SVGID_00000008116334975716695330000004424288862777000072_">
		<use xlink:href="#SVGID_00000155119239195291253330000000893123949812882361_"  style="overflow:visible;"/>
	</clipPath>
	<g style="clip-path:url(#SVGID_00000008116334975716695330000004424288862777000072_);">
		<path class="st4" d="M61.8,200.9c-24.3,0-44-19.7-44-44s19.7-44,44-44s44,19.7,44,44S86.1,200.9,61.8,200.9z M61.8,120.9
			c-19.9,0-36,16.1-36,36s16.1,36,36,36s36-16.1,36-36S81.7,120.9,61.8,120.9z"/>
	</g>
	<g style="clip-path:url(#SVGID_00000008116334975716695330000004424288862777000072_);">
		<path class="st4" d="M192.3,200.1c-24.3,0-44-19.7-44-44s19.7-44,44-44s44,19.7,44,44S216.6,200.1,192.3,200.1z M192.3,120.1
			c-19.9,0-36,16.1-36,36s16.1,36,36,36s36-16.1,36-36S212.2,120.1,192.3,120.1z"/>
	</g>
	<g style="clip-path:url(#SVGID_00000008116334975716695330000004424288862777000072_);">
		<path class="st4" d="M120.7,159.4H57.2c-2.2,0-4-1.8-4-4s1.8-4,4-4h59.1l43.1-70.6c1.2-1.9,3.6-2.5,5.5-1.3
			c1.9,1.2,2.5,3.6,1.3,5.5L120.7,159.4z"/>
	</g>
	<g style="clip-path:url(#SVGID_00000008116334975716695330000004424288862777000072_);">
		<path class="st4" d="M192.2,159.4c-0.9,0-1.9-0.3-2.6-1c-22.5-19.4-29.2-65.5-30.5-76.5l-21-9.5c-2-0.9-2.9-3.3-2-5.3
			c0.9-2,3.3-2.9,5.3-2l25.2,11.4l0.2,2.3c0.1,0.5,5.3,54,28,73.5c1.7,1.4,1.9,4,0.4,5.6C194.4,158.9,193.3,159.4,192.2,159.4z"/>
	</g>
	<g style="clip-path:url(#SVGID_00000008116334975716695330000004424288862777000072_);">
		<polygon class="st4" points="139.7,122.9 80.8,122.9 66.7,97.1 73.7,93.3 85.6,114.9 139.7,114.9 		"/>
	</g>
	<g style="clip-path:url(#SVGID_00000008116334975716695330000004424288862777000072_);">
		<path class="st4" d="M84.2,98H53.7c-2.2,0-4-1.8-4-4s1.8-4,4-4h30.5c2.2,0,4,1.8,4,4S86.4,98,84.2,98z"/>
	</g>
	<polygon style="clip-path:url(#SVGID_00000008116334975716695330000004424288862777000072_);fill:#1C2F5C;" points="143.7,95.9 
		161.1,106.3 131.7,154.2 114.3,143.8 	"/>
	<g style="clip-path:url(#SVGID_00000008116334975716695330000004424288862777000072_);">
		<path class="st6" d="M122.6,133.5L135,124l-3.1-1.6l13.6-10.5l6.3,4.1l-9.5,5.8l3.9,1.6L122.6,133.5z"/>
	</g>
</g>
</svg>
