<?xml version="1.0" encoding="utf-8"?>
<!-- Generator: Adobe Illustrator 25.4.1, SVG Export Plug-In . SVG Version: 6.00 Build 0)  -->
<svg version="1.1" id="Ebene_1" xmlns="http://www.w3.org/2000/svg" xmlns:xlink="http://www.w3.org/1999/xlink" x="0px" y="0px"
	 viewBox="0 0 200 200" style="enable-background:new 0 0 200 200;" xml:space="preserve">
<style type="text/css">
	.st0{clip-path:url(#SVGID_00000023242011279925140470000010307955784771184816_);}
	.st1{fill:#A4BEDC;}
	.st2{fill:#1E2D5A;}
</style>
<g>
	<defs>
		<rect id="SVGID_1_" width="200" height="200"/>
	</defs>
	<clipPath id="SVGID_00000039811939478512000400000012303050232916401848_">
		<use xlink:href="#SVGID_1_"  style="overflow:visible;"/>
	</clipPath>
	<g id="HG_FARBE" style="clip-path:url(#SVGID_00000039811939478512000400000012303050232916401848_);">
		<rect y="0.5" class="st1" width="200" height="200"/>
	</g>
	<g style="clip-path:url(#SVGID_00000039811939478512000400000012303050232916401848_);">
		<path class="st2" d="M40,152c-13.2,0-24,10.8-24,24s10.8,24,24,24s24-10.8,24-24C64,162.7,53.3,152,40,152z M40,192.3
			c-9,0-16.4-7.3-16.4-16.4c0-9.1,7.3-16.4,16.4-16.4S56.4,167,56.4,176S49,192.3,40,192.3z"/>
		<path class="st2" d="M197.5,152c-13.2,0-24,10.8-24,24s10.8,24,24,24s24-10.8,24-24C221.5,162.7,210.7,152,197.5,152z
			 M197.5,192.3c-9,0-16.4-7.3-16.4-16.4c0-9.1,7.3-16.4,16.4-16.4s16.4,7.3,16.4,16.4C213.9,185,206.5,192.3,197.5,192.3z"/>
		<path class="st2" d="M163.4,172.2H74.1c-2.1,0-3.8,1.7-3.8,3.8c0,2.1,1.7,3.8,3.8,3.8h89.3c2.1,0,3.8-1.7,3.8-3.8
			C167.2,173.9,165.5,172.2,163.4,172.2z"/>
		<path class="st2" d="M82,144.9c2.1,0,3.8-1.7,3.8-3.8c0-2.1-1.7-3.8-3.8-3.8H71.3c-2.1,0-3.8,1.7-3.8,3.8c0,2.1,1.7,3.8,3.8,3.8
			H82z"/>
		<path class="st2" d="M226.9,130.8c-3.4-3.3-6.8-4.8-9.3-5.5c-0.6-10.8-4.2-21.6-9.9-28.6h2.2c2.1,0,3.8-1.7,3.8-3.8
			c0-2.1-1.7-3.8-3.8-3.8h-91.7c2.1-5.3,3.2-11,3.2-17c0-26-21.1-47.1-47.1-47.1S27.2,46.1,27.2,72.1s21.1,47.1,47.1,47.1
			c0.3,0,0.5,0,0.8,0l-5.1,6.3l-35,7.7C3.5,140-1.4,166.8,0.3,180c0.3,1.9,1.9,3.3,3.8,3.3c0.2,0,0.3,0,0.5,0
			c2.1-0.3,3.6-2.2,3.3-4.3c-0.2-1.3-3.6-31.4,28.7-38.5l36.3-8c0.2,0,0.4-0.2,0.6-0.2h140.2c0.7,0,17,1,17,36.2
			c0,2.1,1.7,3.8,3.8,3.8c2.1,0,3.8-1.7,3.8-3.8C238.5,150.9,234.6,138.2,226.9,130.8z M74.4,111.2c-21.6,0-39.1-17.5-39.1-39.1
			c0-21.6,17.5-39.1,39-39.1c21.6,0,39.1,17.5,39.1,39.1c0,6.1-1.4,11.9-3.9,17h-8.3c-1.2,0-2.2,0.5-3,1.4l-16,19.9
			C79.7,110.9,77,111.2,74.4,111.2z M146.9,124.7H80.4l22.6-28h43.9V124.7z M154.6,124.7v-28h39c7.8,0,15.1,13.1,16.2,28H154.6z"/>
		<path class="st2" d="M74.9,50.7c6.2,0,10.7,3.9,12,10.3l0.3,1.6h8.1l-0.4-2.4c-2-10.7-9.5-17.1-20-17.2c-5.6,0-10.7,2-14.3,5.7
			c-4.2,4.2-5.4,8.2-5.7,14.4h-5v6.8h4.7v3.9h-4.7v6.8h4.9c0.4,6.6,1.5,10.5,5.8,14.8c3.7,3.7,8.8,5.7,14.3,5.7
			c10.5,0,18-6.4,20-17.1l0.4-2.4h-8.1l-0.4,1.6c-1.4,6.5-5.8,10.3-12,10.3c-3.5,0-6.3-1.1-8.7-3.5c-2.1-2.1-2.9-4.4-3.3-9.4h18.1
			v-6.8H62.7v-3.9h18.2v-6.8h-18c0.3-4.6,1.2-6.8,3.3-8.9C68.5,51.9,71.5,50.7,74.9,50.7z"/>
	</g>
</g>
</svg>
