<?xml version="1.0" encoding="utf-8"?>
<!-- Generator: Adobe Illustrator 25.0.0, SVG Export Plug-In . SVG Version: 6.00 Build 0)  -->
<svg version="1.1" xmlns="http://www.w3.org/2000/svg" xmlns:xlink="http://www.w3.org/1999/xlink" x="0px" y="0px"
	 viewBox="0 0 200 200" style="enable-background:new 0 0 200 200;" xml:space="preserve">
<style type="text/css">
	.st0{fill:#C7CEDB;}
	.st1{fill:#A5BCDC;}
	.st2{fill:#1F5686;}
	.st3{fill:#E3E6ED;}
	.st4{fill:#1C2F5C;}
	.st5{clip-path:url(#SVGID_2_);fill:#1C2F5C;}
	.st6{clip-path:url(#SVGID_4_);fill:#A5BCDC;}
	.st7{clip-path:url(#SVGID_6_);}
	.st8{clip-path:url(#SVGID_8_);fill:#536887;}
	.st9{clip-path:url(#SVGID_10_);fill:#FFFFFF;}
	.st10{clip-path:url(#SVGID_12_);fill:#FFFFFF;}
	.st11{clip-path:url(#SVGID_14_);}
	.st12{clip-path:url(#SVGID_16_);}
	.st13{fill:#FFFFFF;}
	.st14{clip-path:url(#SVGID_18_);fill:#A5BCDC;}
	.st15{clip-path:url(#SVGID_20_);fill:#1C2F5C;}
	.st16{clip-path:url(#SVGID_22_);}
	.st17{fill:#0D0802;}
</style>
<g id="HG_FARBE">
	<rect class="st1" width="200" height="200"/>
</g>
<g id="ILLUS">
	<g>
		<defs>
			<rect id="SVGID_9_" width="200" height="200"/>
		</defs>
		<clipPath id="SVGID_2_">
			<use xlink:href="#SVGID_9_"  style="overflow:visible;"/>
		</clipPath>
		<path style="clip-path:url(#SVGID_2_);fill:#FFFFFF;" d="M200,96.9c0-44.3-76.2-117.1-79.4-120.1l-2.6-2.5l-2.6,2.5
			c-3.2,3.1-79.4,75.8-79.4,120.1c0,44,34.8,80,78.2,82v38.8h7.7v-38.8C165.2,176.9,200,140.9,200,96.9z M121.8,171.2v-27.1
			l35.4-35.4l-6.4-6.4l-29.1,29.1v-29.8l23.4-23.4l-6.4-6.4l-17,17V47.6h-7.7v41.3l-17-17l-6.4,6.4l23.4,23.4v29.8L85,102.4
			l-6.4,6.4l35.4,35.4v27.1c-39.3-2-70.6-34.6-70.6-74.3c0-36.7,60.9-98.7,74.4-112c13.5,13.3,74.4,75.3,74.4,112
			C192.3,136.7,161,169.2,121.8,171.2z"/>
	</g>
	<g>
		<defs>
			<rect id="SVGID_11_" x="238.3" width="200" height="200"/>
		</defs>
		<clipPath id="SVGID_4_">
			<use xlink:href="#SVGID_11_"  style="overflow:visible;"/>
		</clipPath>
		<path style="clip-path:url(#SVGID_4_);fill:#FFFFFF;" d="M392.8,142.4l-1.4-0.5l1.4-0.6c12.7-5.8,20.3-17.6,20.3-31.4
			c0-16.2-9.5-29.1-24.7-33.4l-15.6-4.3c-11.6-3.4-17.5-10.3-17.5-20.7c0-14.1,8.3-21.8,23.5-21.8c14.7,0,22.5,6.3,24,19.3l0,0.2
			h8.8l0-0.2c-0.6-7.2-3.7-13.8-8.8-18.5c-5.9-5.5-14.2-8.4-23.9-8.4c-19,0-32.3,12.1-32.3,29.4c0,12.5,5.6,20.5,18.2,25.9l1.2,0.5
			l-1.2,0.6c-12.7,5.8-20.3,17.6-20.3,31.4c0,16.5,9.2,29,24.7,33.4l15.6,4.3c11.2,3.1,18.1,11.4,18.1,21.6c0,14.4-9,22.9-24.1,22.9
			c-8.4,0-14.8-2.3-19-6.7L349.2,154L218.4,23.2l-26.2,26.2L323,180.2l29.6,9.9c6,6.4,15,10,26.1,10c19.4,0,33-12.7,33-30.8
			C411.7,156.4,404.7,146.3,392.8,142.4z M378.7,137.2c-7.5,0-13.8-2.7-18.6-7.9c-4.5-4.7-6.7-11.1-6.7-19.4
			c0-8.7,1.9-14.2,6.7-19.4c4.8-5.2,11.1-7.9,18.6-7.9c7.1,0,13.4,2.6,18.6,7.9c5.9,5.9,6.7,12.8,6.7,19.4c0,8.4-2,14.2-6.7,19.4
			C392.6,134.4,386.1,137.2,378.7,137.2z M341.1,155.9l-5.6,5.6L229.4,55.3l5.6-5.6L341.1,155.9z M202.2,49.3l16.2-16.2L230,44.8
			l-16.2,16.2L202.2,49.3z M324.9,172.1L218.8,65.9l5.6-5.6l106.2,106.2L324.9,172.1z M344.6,162.4l6.6,19.7l-19.7-6.6L344.6,162.4z
			"/>
	</g>
</g>
</svg>
