<?xml version="1.0" encoding="utf-8"?>
<!-- Generator: Adobe Illustrator 25.4.1, SVG Export Plug-In . SVG Version: 6.00 Build 0)  -->
<svg version="1.1" id="Ebene_1" xmlns="http://www.w3.org/2000/svg" xmlns:xlink="http://www.w3.org/1999/xlink" x="0px" y="0px"
	 viewBox="0 0 200 200" style="enable-background:new 0 0 200 200;" xml:space="preserve">
<style type="text/css">
	.st0{clip-path:url(#SVGID_00000060715487160122063980000002326298640494432403_);fill:#E3E6ED;}
	.st1{clip-path:url(#SVGID_00000060715487160122063980000002326298640494432403_);}
	.st2{clip-path:url(#SVGID_00000008130448662422359320000003354940154739578522_);fill:#1E2D5A;}
	.st3{clip-path:url(#SVGID_00000060715487160122063980000002326298640494432403_);fill:#1E2D5A;}
	
		.st4{clip-path:url(#SVGID_00000060715487160122063980000002326298640494432403_);fill:none;stroke:#1E2D5A;stroke-width:8;stroke-miterlimit:10;}
</style>
<g>
	<defs>
		<rect id="SVGID_1_" width="200" height="200"/>
	</defs>
	<clipPath id="SVGID_00000001636127655894550190000013076435086979821985_">
		<use xlink:href="#SVGID_1_"  style="overflow:visible;"/>
	</clipPath>
	
		<rect style="clip-path:url(#SVGID_00000001636127655894550190000013076435086979821985_);fill:#E3E6ED;" width="200" height="200"/>
	<g style="clip-path:url(#SVGID_00000001636127655894550190000013076435086979821985_);">
		<g>
			<g>
				<g>
					<defs>
						<rect id="SVGID_00000119821788870233399920000004786719577181633717_" width="200" height="200"/>
					</defs>
					<clipPath id="SVGID_00000003074245329848835880000005951529795633426346_">
						<use xlink:href="#SVGID_00000119821788870233399920000004786719577181633717_"  style="overflow:visible;"/>
					</clipPath>
					<path style="clip-path:url(#SVGID_00000003074245329848835880000005951529795633426346_);fill:#1E2D5A;" d="M207.4,212.8
						l-29.5-29.5h-113c-5.1,0-9.9-2.3-13-6.3l-56.4-56.4c-6.5-6.5-6.5-17.1,0-23.6s17.1-6.5,23.6,0c0.5,0.5,38.2,38.2,45.2,45.2h7.4
						c-5.2-2.8-8.8-8.3-8.8-14.7c0-9.2,7.5-16.7,16.7-16.7c0.1,0,72,0.1,72,0.1c0.9,0,8.6,0.1,13.5,1.7c5.1,1.7,8,4.5,8.4,4.8l0,0
						L238,182L207.4,212.8z M7.3,99.8c-2.3,0-4.6,0.9-6.4,2.6c-1.7,1.7-2.6,4-2.6,6.4s0.9,4.7,2.6,6.4l56.9,56.9
						c1.7,2.2,4.3,3.5,7.1,3.5H181l26.4,26.4l19.8-19.8l-59.1-59.1c-0.2-0.2-2.2-2-5.5-3.1c-3.1-1.1-9-1.3-11-1.3
						c0,0-71.6-0.1-71.9-0.1c-5,0-9,4-9,9c0,5,4,9,9,9h65v13.3H61.1l-1.1-1.1c-10.8-10.8-46.2-46.2-46.4-46.4
						C11.9,100.6,9.6,99.8,7.3,99.8z"/>
				</g>
			</g>
		</g>
	</g>
	<path style="clip-path:url(#SVGID_00000001636127655894550190000013076435086979821985_);fill:#1E2D5A;" d="M110.7,13.7
		c-22.8,0-41.3,18.5-41.3,41.3s18.5,41.3,41.3,41.3c22.8,0,41.3-18.5,41.3-41.3S133.5,13.7,110.7,13.7z M143.2,55
		c0,17.9-14.6,32.5-32.5,32.5c-17.9,0-32.5-14.6-32.5-32.5s14.6-32.5,32.5-32.5C128.6,22.5,143.2,37.1,143.2,55z"/>
	<path style="clip-path:url(#SVGID_00000001636127655894550190000013076435086979821985_);fill:#1E2D5A;" d="M120.6,62l-0.3,1.7
		c-1.1,4.9-4.6,7.9-9.2,7.9c-2.7,0-4.9-0.9-6.6-2.7c-1.4-1.4-2.3-3-2.5-6.7h14.6v-6.5h-14.7v-2.2h14.7V47h-14.6
		c0.4-3.4,1-4.8,2.5-6.3c1.7-1.7,4-2.7,6.6-2.7c4.8,0,8.2,2.9,9.2,7.9l0.3,1.7h7.6l-0.4-2.5c-1.6-8.9-7.9-14.2-16.7-14.3
		c-4.6,0-8.9,1.7-12,4.7c-3.5,3.5-4.4,6.9-4.7,11.6h-4v6.6h3.8v2.2h-3.8v6.5h4c0.3,5,1.2,8.2,4.8,11.8c3,3.1,7.2,4.8,12,4.8
		c8.8,0,15.1-5.4,16.7-14.5l0.4-2.5H120.6z"/>
	
		<line style="clip-path:url(#SVGID_00000001636127655894550190000013076435086979821985_);fill:none;stroke:#1E2D5A;stroke-width:8;stroke-miterlimit:10;" x1="19.7" y1="40.1" x2="61.1" y2="40.1"/>
	
		<line style="clip-path:url(#SVGID_00000001636127655894550190000013076435086979821985_);fill:none;stroke:#1E2D5A;stroke-width:8;stroke-miterlimit:10;" x1="18.7" y1="69.8" x2="64.5" y2="69.8"/>
	
		<line style="clip-path:url(#SVGID_00000001636127655894550190000013076435086979821985_);fill:none;stroke:#1E2D5A;stroke-width:8;stroke-miterlimit:10;" x1="6.6" y1="55" x2="47.7" y2="55"/>
</g>
</svg>
