<?xml version="1.0" encoding="utf-8"?>
<!-- Generator: Adobe Illustrator 25.0.0, SVG Export Plug-In . SVG Version: 6.00 Build 0)  -->
<svg version="1.1" xmlns="http://www.w3.org/2000/svg" xmlns:xlink="http://www.w3.org/1999/xlink" x="0px" y="0px"
	 viewBox="0 0 200 200" style="enable-background:new 0 0 200 200;" xml:space="preserve">
<style type="text/css">
	.st0{fill:#C7CEDB;}
	.st1{fill:#A5BCDC;}
	.st2{fill:#1F5686;}
	.st3{fill:#E3E6ED;}
	.st4{fill:#1C2F5C;}
	.st5{clip-path:url(#SVGID_2_);fill:#1C2F5C;}
	.st6{clip-path:url(#SVGID_4_);fill:#A5BCDC;}
	.st7{clip-path:url(#SVGID_6_);}
	.st8{clip-path:url(#SVGID_8_);fill:#536887;}
	.st9{clip-path:url(#SVGID_10_);fill:#FFFFFF;}
	.st10{clip-path:url(#SVGID_12_);fill:#FFFFFF;}
	.st11{clip-path:url(#SVGID_14_);}
	.st12{clip-path:url(#SVGID_16_);}
	.st13{fill:#FFFFFF;}
	.st14{clip-path:url(#SVGID_18_);fill:#A5BCDC;}
	.st15{clip-path:url(#SVGID_20_);fill:#1C2F5C;}
	.st16{clip-path:url(#SVGID_22_);}
	.st17{fill:#0D0802;}
</style>
<g id="HG_FARBE">
	<rect class="st3" width="200" height="200"/>
</g>
<g id="ILLUS">
	<g>
		<defs>
			<rect id="SVGID_21_" width="200" height="200"/>
		</defs>
		<clipPath id="SVGID_2_">
			<use xlink:href="#SVGID_21_"  style="overflow:visible;"/>
		</clipPath>
		<g style="clip-path:url(#SVGID_2_);">
			<path class="st2" d="M207.4,212.8l-29.5-29.5H64.9c-5.1,0-9.9-2.3-13-6.3l-56.4-56.4c-6.5-6.5-6.5-17.1,0-23.6
				c6.5-6.5,17.1-6.5,23.6,0c0.5,0.5,38.2,38.2,45.2,45.2h7.4c-5.2-2.8-8.8-8.3-8.8-14.7c0-9.2,7.5-16.7,16.7-16.7
				c0.1,0,72,0.1,72,0.1c0.9,0,8.6,0.1,13.5,1.7c5.1,1.7,8,4.5,8.4,4.8l0,0l64.5,64.6L207.4,212.8z M7.3,99.8
				c-2.3,0-4.6,0.9-6.4,2.6c-1.7,1.7-2.6,4-2.6,6.4c0,2.4,0.9,4.7,2.6,6.4l56.9,56.9c1.7,2.2,4.3,3.5,7.1,3.5l116.1,0l26.4,26.4
				l19.8-19.8l-59.1-59.1c-0.2-0.2-2.2-2-5.5-3.1c-3.1-1.1-9-1.3-11-1.3c0,0-71.6-0.1-71.9-0.1c-5,0-9,4-9,9c0,5,4,9,9,9l65,0v13.3
				H61.1l-1.1-1.1c-10.8-10.8-46.2-46.2-46.4-46.4C11.9,100.6,9.6,99.8,7.3,99.8z"/>
			<g>
				<path class="st17" d="M162.6,103.2H76.4V51.7l43.1-42.8l5.2,5.1h30.2l0.1,30l7.7,7.7V103.2z M84,95.5h71V54.9l-7.7-7.7l0-25.6
					h-15.7v10l-12-12L84,54.9V95.5z"/>
				<path class="st2" d="M162.6,103.2H76.4V51.7l43.1-42.8l5.2,5.1h30.2l0.1,30l7.7,7.7V103.2z M84,95.5h71V54.9l-7.7-7.7l0-25.6
					h-15.7v10l-12-12L84,54.9V95.5z"/>
			</g>
		</g>
	</g>
</g>
</svg>
