<?xml version="1.0" encoding="utf-8"?>
<!-- Generator: Adobe Illustrator 25.0.0, SVG Export Plug-In . SVG Version: 6.00 Build 0)  -->
<svg version="1.1" xmlns="http://www.w3.org/2000/svg" xmlns:xlink="http://www.w3.org/1999/xlink" x="0px" y="0px"
	 viewBox="0 0 200 200" style="enable-background:new 0 0 200 200;" xml:space="preserve">
<style type="text/css">
	.st0{fill:#C7CEDB;}
	.st1{fill:#A5BCDC;}
	.st2{fill:#1F5686;}
	.st3{fill:#E3E6ED;}
	.st4{fill:#1C2F5C;}
	.st5{clip-path:url(#SVGID_2_);fill:#1C2F5C;}
	.st6{clip-path:url(#SVGID_4_);fill:#A5BCDC;}
	.st7{clip-path:url(#SVGID_6_);}
	.st8{clip-path:url(#SVGID_8_);fill:#536887;}
	.st9{clip-path:url(#SVGID_10_);fill:#FFFFFF;}
	.st10{clip-path:url(#SVGID_12_);fill:#FFFFFF;}
	.st11{clip-path:url(#SVGID_14_);}
	.st12{clip-path:url(#SVGID_16_);}
	.st13{fill:#FFFFFF;}
	.st14{clip-path:url(#SVGID_18_);fill:#A5BCDC;}
	.st15{clip-path:url(#SVGID_20_);fill:#1C2F5C;}
	.st16{clip-path:url(#SVGID_22_);}
	.st17{fill:#0D0802;}
</style>
<g id="HG_FARBE">
	<rect class="st0" width="200" height="200"/>
</g>
<g id="ILLUS">
	<g>
		<defs>
			<rect id="SVGID_13_" x="-238.3" width="200" height="200"/>
		</defs>
		<clipPath id="SVGID_2_">
			<use xlink:href="#SVGID_13_"  style="overflow:visible;"/>
		</clipPath>
		<g style="clip-path:url(#SVGID_2_);">
			<path class="st4" d="M-4,130.8c-3.4-3.3-6.8-4.8-9.3-5.5c-0.6-10.8-4.2-21.6-9.9-28.6h2.2c2.1,0,3.8-1.7,3.8-3.8S-19,89-21.1,89
				h-108.6c-1.2,0-2.2,0.5-3,1.4l-28.2,35l-35,7.7c-31.5,6.9-36.4,33.7-34.7,47c0.3,1.9,1.9,3.3,3.8,3.3c0.2,0,0.3,0,0.5,0
				c2.1-0.3,3.6-2.2,3.3-4.3c-0.2-1.3-3.6-31.4,28.7-38.5l36.3-8c0.2,0,0.4-0.2,0.6-0.2h140.2c0.7,0,17,1,17,36.2
				c0,2.1,1.7,3.8,3.8,3.8s3.8-1.7,3.8-3.8C7.5,150.9,3.6,138.2-4,130.8z M-21.1,124.7h-55.3v-28h39
				C-29.6,96.7-22.2,109.8-21.1,124.7z M-127.9,96.7H-84v28h-66.5L-127.9,96.7z"/>
		</g>
	</g>
	<g>
		<defs>
			<rect id="SVGID_15_" width="200" height="200"/>
		</defs>
		<clipPath id="SVGID_4_">
			<use xlink:href="#SVGID_15_"  style="overflow:visible;"/>
		</clipPath>
		<g style="clip-path:url(#SVGID_4_);">
			<path class="st13" d="M139.4,116.3c0-1.8-0.8-4.6-2.7-6.5c-6.9-6.6-14-13-21-19.5l-5.1-4.7c-0.4-0.4-0.8-0.7-1.3-1.1l-3.5-3
				l-4.1,5c-1.2,1.5-2.4,2.9-3.6,4.3c-1.3,1.5-2.8,2.1-4.9,2.2l-65.9,1.7L-5.8,61.7c-1.5-1.5-3.9-1.5-5.4,0c-1.5,1.5-1.5,3.9,0,5.4
				L23,101.3v31.5c-0.3,2.7-1.3,7.1-2.6,8.5c-1.5,1.6-2.4,3.9-2.4,5.9c0.3,12.4,0.9,48.7,0.9,49.1L19,200h26.6l0-3.8
				c0-0.1,0.1-15,0-22.9c0-1,0.2-1.4,0.9-2.1c6.1-6.4,12.4-13.1,18.5-19.8c0.4-0.5,0.5-0.6,1.1-0.5c12.5,0.1,36.6,0.1,45.9,0.1v49
				h28.7l0-3.9C140.5,195.5,139.9,137.6,139.4,116.3z M119.5,192.3v-48.9l-3.8,0c0,0-33.9-0.1-49.7-0.2c0,0,0,0,0,0
				c-2.7,0-4.9,0.9-6.7,3c-6.1,6.7-12.3,13.3-18.4,19.7c-2.1,2.2-3,4.6-3,7.5c0.1,5.3,0.1,14,0.1,18.9H26.5
				c-0.2-9.7-0.6-35.3-0.9-45.3c0-0.1,0.2-0.5,0.3-0.6c3.7-3.9,4.6-11.7,4.7-13.3l0-30.9l62.8-1.6c4.2-0.1,7.7-1.7,10.4-4.8
				c1-1.1,2-2.3,3-3.5l3.8,3.5c7,6.5,14,12.9,20.9,19.4c0.1,0.2,0.3,0.7,0.3,1.1c0.4,18.1,0.9,62.5,1,75.9H119.5z"/>
			<path class="st13" d="M179,72.4c-7.4-7.3-14.8-14.6-22-21.8c-0.1-0.2-0.3-0.7-0.3-1c-0.1-2-0.1-4,0-6c0-1.5,0-2.9,0-4.4
				c0-1.2-0.4-2.2-0.6-2.9c-0.1-0.2-0.1-0.4-0.2-0.5l-1.4-5.1l-4.4,2.9c-0.2,0.1-0.3,0.2-0.5,0.3c-0.7,0.4-1.6,0.9-2.4,1.7
				c-11,11.8-21.9,23.7-32.8,35.5c-0.4,0.4-0.7,0.8-1,1.3l-2.2,3.1l33.2,30.9l9.4-9c1.5,1.2,3,2.4,4.6,3.5c3.8,2.9,8.4,2.7,11.3-0.4
				c3.7-3.8,7.3-7.8,11-11.8l7-7.6L179,72.4z M175.2,83.5c-3.7,4-7.3,7.9-11,11.8c0,0-0.5,0-1.1-0.5c-1.7-1.3-3.3-2.6-5-3.8
				l-4.7-3.7l-9,8.5l-22.8-21.2c9.1-9.9,18.3-19.8,27.4-29.7c0,1.6,0,3.3,0,4.9c0.1,1.8,0.8,4.3,2.5,6.1
				c7.3,7.3,14.7,14.5,22.1,21.9l3.5,3.5L175.2,83.5z"/>
			<path class="st13" d="M101.6,77.1c0.7,0.7,1.7,1,2.6,1c1,0,2-0.4,2.8-1.2c1.4-1.5,1.4-4-0.2-5.4L16.1-13.1
				c-1.5-1.4-4-1.4-5.4,0.2s-1.4,4,0.2,5.4L101.6,77.1z"/>
		</g>
	</g>
</g>
</svg>
