<?xml version="1.0" encoding="utf-8"?>
<!-- Generator: Adobe Illustrator 25.4.1, SVG Export Plug-In . SVG Version: 6.00 Build 0)  -->
<svg version="1.1" id="Ebene_1" xmlns="http://www.w3.org/2000/svg" xmlns:xlink="http://www.w3.org/1999/xlink" x="0px" y="0px"
	 viewBox="0 0 200 200" style="enable-background:new 0 0 200 200;" xml:space="preserve">
<style type="text/css">
	.st0{clip-path:url(#SVGID_00000085229915174803601000000009476166005142718860_);fill:#FFFFFF;}
	.st1{fill:#FFFFFF;}
	.st2{clip-path:url(#SVGID_00000012451956321354988960000002989302627378097834_);fill:#A4BEDC;}
	.st3{clip-path:url(#SVGID_00000012451956321354988960000002989302627378097834_);}
	.st4{fill:none;stroke:#FFFFFF;stroke-width:9;stroke-miterlimit:10;}
	
		.st5{clip-path:url(#SVGID_00000012451956321354988960000002989302627378097834_);fill:none;stroke:#FFFFFF;stroke-width:9;stroke-miterlimit:10;}
</style>
<g>
	<g>
		<g>
			<g>
				<g>
					<g>
						<g>
							<defs>
								<rect id="SVGID_1_" x="-296.8" y="0" width="200" height="200"/>
							</defs>
							<clipPath id="SVGID_00000139993612268923194260000016454463791587178146_">
								<use xlink:href="#SVGID_1_"  style="overflow:visible;"/>
							</clipPath>
							<path style="clip-path:url(#SVGID_00000139993612268923194260000016454463791587178146_);fill:#FFFFFF;" d="M-89.4,212.8
								l-29.5-29.5h-113c-5.1,0-9.9-2.3-13-6.3l-56.4-56.4c-6.5-6.5-6.5-17.1,0-23.6s17.1-6.5,23.6,0c0.5,0.5,38.2,38.2,45.2,45.2
								h7.4c-5.2-2.8-8.8-8.3-8.8-14.7c0-9.2,7.5-16.7,16.7-16.7c0.1,0,72,0.1,72,0.1c0.9,0,8.6,0.1,13.5,1.7c5.1,1.7,8,4.5,8.4,4.8
								l0,0l64.5,64.6L-89.4,212.8z M-289.5,99.8c-2.3,0-4.6,0.9-6.4,2.6c-1.7,1.7-2.6,4-2.6,6.4s0.9,4.7,2.6,6.4l56.9,56.9
								c1.7,2.2,4.3,3.5,7.1,3.5h116.1l26.4,26.4l19.8-19.8l-59.1-59.1c-0.2-0.2-2.2-2-5.5-3.1c-3.1-1.1-9-1.3-11-1.3
								c0,0-71.6-0.1-71.9-0.1c-5,0-9,4-9,9c0,5,4,9,9,9h65v13.3h-83.6l-1.1-1.1c-10.8-10.8-46.2-46.2-46.4-46.4
								C-284.9,100.6-287.2,99.8-289.5,99.8z"/>
						</g>
					</g>
				</g>
			</g>
		</g>
	</g>
	<path class="st1" d="M-186.1,13.7c-22.8,0-41.3,18.5-41.3,41.3s18.5,41.3,41.3,41.3s41.3-18.5,41.3-41.3S-163.3,13.7-186.1,13.7z
		 M-153.6,55c0,17.9-14.6,32.5-32.5,32.5s-32.5-14.6-32.5-32.5s14.6-32.5,32.5-32.5S-153.6,37.1-153.6,55z"/>
	<g>
		<path class="st1" d="M-175.8,62.5l-0.2,1.3c-1.1,5.1-4.8,8.3-9.7,8.3c-2.8,0-5.1-0.9-7-2.8c-1.7-1.7-2.5-3.6-2.7-7.6h14.6v-5.5
			h-14.7V53h14.7v-5.5h-14.7c0.4-3.8,1-5.5,2.7-7.2c1.8-1.8,4.2-2.8,7-2.8c5,0,8.6,3,9.7,8.3l0.2,1.3h6.6l-0.3-1.9
			c-1.6-8.6-7.6-13.8-16.2-13.9c-4.5,0-8.6,1.6-11.6,4.6c-3.4,3.4-4.3,6.7-4.6,11.7h-4v5.6h3.8v3.2h-3.8v5.5h4
			c0.3,5.4,1.2,8.5,4.7,12c2.9,3,7.1,4.6,11.6,4.6c8.5,0,14.6-5.1,16.2-14.1l0.3-1.9C-169.2,62.5-175.8,62.5-175.8,62.5z"/>
		<path class="st1" d="M-185.7,79c-4.7,0-9-1.7-12-4.8c-3.6-3.6-4.5-6.9-4.8-11.8h-4v-6.5h3.8v-2.2h-3.8v-6.6h4
			c0.3-4.7,1.3-8.1,4.7-11.6c3.1-3.1,7.3-4.7,12-4.7c8.8,0.1,15,5.5,16.7,14.3l0.4,2.5h-7.6l-0.3-1.7c-1-5-4.4-7.9-9.2-7.9
			c-2.6,0-4.9,0.9-6.6,2.7c-1.5,1.5-2.1,3-2.5,6.3h14.6v6.5H-195v2.2h14.7v6.5h-14.6c0.3,3.8,1.1,5.3,2.5,6.7c1.8,1.8,4,2.7,6.6,2.7
			c4.6,0,8.2-3,9.2-7.9l0.3-1.7h7.6l-0.4,2.5C-170.6,73.6-176.9,79-185.7,79z M-205.5,61.4h4v0.5c0.3,5.1,1,8.2,4.6,11.7
			c2.8,2.9,6.8,4.5,11.2,4.5c8.4,0,14.2-5,15.7-13.7l0.2-1.4h-5.6l-0.1,0.9c-1.2,5.4-5.1,8.7-10.2,8.7c-3,0-5.4-1-7.4-2.9
			c-1.9-1.9-2.7-4-2.8-7.9v-0.5h14.6v-4.5H-196v-4.2h14.7V48h-14.8l0.1-0.6c0.4-4,1.1-5.7,2.8-7.5c1.9-1.9,4.5-2.9,7.4-2.9
			c5.2,0,9.1,3.3,10.2,8.7l0.1,0.9h5.6l-0.2-1.3c-1.6-8.3-7.4-13.4-15.7-13.5c-4.4,0-8.4,1.6-11.2,4.5c-3.4,3.4-4.2,6.6-4.5,11.4
			v0.5h-4v4.6h3.8V57h-3.8L-205.5,61.4L-205.5,61.4z"/>
	</g>
</g>
<g>
	<defs>
		<rect id="SVGID_00000067927942658755490710000015252976920315283385_" y="0" width="200" height="200"/>
	</defs>
	<clipPath id="SVGID_00000168083731921043242000000002417280998666207639_">
		<use xlink:href="#SVGID_00000067927942658755490710000015252976920315283385_"  style="overflow:visible;"/>
	</clipPath>
	
		<rect style="clip-path:url(#SVGID_00000168083731921043242000000002417280998666207639_);fill:#A4BEDC;" width="200" height="200"/>
	<g style="clip-path:url(#SVGID_00000168083731921043242000000002417280998666207639_);">
		<polygon class="st4" points="76.5,118.9 76.5,187 284,187 284,118.9 259,118.9 259,153.6 100.1,153.6 100.1,118.9 		"/>
		<path class="st4" d="M95.3,118.9V94.6c0,0,41-32.6,83.3,0v24.3"/>
		<path class="st4" d="M178.5,118.9V94.6c0,0,41-32.6,83.3,0v24.3"/>
		<polygon class="st4" points="95.3,187 95.3,208.2 121.6,208.2 130,187 		"/>
	</g>
	<g style="clip-path:url(#SVGID_00000168083731921043242000000002417280998666207639_);">
		<line class="st4" x1="41.8" y1="80.1" x2="41.8" y2="189.8"/>
		<polygon class="st4" points="28.6,36.4 18.2,82.1 65.4,82.1 54.3,36.4 		"/>
		<polygon class="st4" points="24,205.1 29.9,187.8 52.2,187.8 59.4,205.1 		"/>
	</g>
	
		<polygon style="clip-path:url(#SVGID_00000168083731921043242000000002417280998666207639_);fill:none;stroke:#FFFFFF;stroke-width:9;stroke-miterlimit:10;" points="
		262.5,190 262.5,204.6 236.8,204.6 229.2,190 	"/>
</g>
</svg>
