<?xml version="1.0" encoding="utf-8"?>
<!-- Generator: Adobe Illustrator 25.0.0, SVG Export Plug-In . SVG Version: 6.00 Build 0)  -->
<svg version="1.1" xmlns="http://www.w3.org/2000/svg" xmlns:xlink="http://www.w3.org/1999/xlink" x="0px" y="0px"
	 viewBox="0 0 200 200" style="enable-background:new 0 0 200 200;" xml:space="preserve">
<style type="text/css">
	.st0{fill:#C7CEDB;}
	.st1{fill:#A5BCDC;}
	.st2{fill:#1F5686;}
	.st3{fill:#E3E6ED;}
	.st4{fill:#1C2F5C;}
	.st5{clip-path:url(#SVGID_2_);fill:#1C2F5C;}
	.st6{clip-path:url(#SVGID_4_);fill:#A5BCDC;}
	.st7{clip-path:url(#SVGID_6_);}
	.st8{clip-path:url(#SVGID_8_);fill:#536887;}
	.st9{clip-path:url(#SVGID_10_);fill:#FFFFFF;}
	.st10{clip-path:url(#SVGID_12_);fill:#FFFFFF;}
	.st11{clip-path:url(#SVGID_14_);}
	.st12{clip-path:url(#SVGID_16_);}
	.st13{fill:#FFFFFF;}
	.st14{clip-path:url(#SVGID_18_);fill:#A5BCDC;}
	.st15{clip-path:url(#SVGID_20_);fill:#1C2F5C;}
	.st16{clip-path:url(#SVGID_22_);}
	.st17{fill:#0D0802;}
</style>
<g id="HG_FARBE">
	<rect class="st0" width="200" height="200"/>
</g>
<g id="ILLUS">
	<g>
		<defs>
			<rect id="SVGID_7_" width="200" height="200"/>
		</defs>
		<clipPath id="SVGID_2_">
			<use xlink:href="#SVGID_7_"  style="overflow:visible;"/>
		</clipPath>
		<path style="clip-path:url(#SVGID_2_);fill:#536887;" d="M100,50.7l11.1,11l13,12.9V56.3v-1.6h31.3v0.1l0.1,7.7v40.1v3.2l2.3,2.2
			l13.2,13.1v81.2h-43.7h-7.9v-33.1v-7.7h-7.7H88.3h-7.7v7.7v33.1h-7.9H29.1v-81.2L100,50.7 M100,40l-78.6,78V210h51.4h15.6v-40.8
			h23.4V210h15.6h51.4V118l-15.5-15.3V54.8H163v-7.8h-46.6V51v5.3L100,40L100,40z"/>
	</g>
</g>
</svg>
