<?xml version="1.0" encoding="utf-8"?>
<!-- Generator: Adobe Illustrator 25.0.0, SVG Export Plug-In . SVG Version: 6.00 Build 0)  -->
<svg version="1.1" xmlns="http://www.w3.org/2000/svg" xmlns:xlink="http://www.w3.org/1999/xlink" x="0px" y="0px"
	 viewBox="0 0 200 200" style="enable-background:new 0 0 200 200;" xml:space="preserve">
<style type="text/css">
	.st0{fill:#C7CEDB;}
	.st1{fill:#A5BCDC;}
	.st2{fill:#1F5686;}
	.st3{fill:#E3E6ED;}
	.st4{fill:#1C2F5C;}
	.st5{clip-path:url(#SVGID_2_);fill:#1C2F5C;}
	.st6{clip-path:url(#SVGID_4_);fill:#A5BCDC;}
	.st7{clip-path:url(#SVGID_6_);}
	.st8{clip-path:url(#SVGID_8_);fill:#536887;}
	.st9{clip-path:url(#SVGID_10_);fill:#FFFFFF;}
	.st10{clip-path:url(#SVGID_12_);fill:#FFFFFF;}
	.st11{clip-path:url(#SVGID_14_);}
	.st12{clip-path:url(#SVGID_16_);}
	.st13{fill:#FFFFFF;}
	.st14{clip-path:url(#SVGID_18_);fill:#A5BCDC;}
	.st15{clip-path:url(#SVGID_20_);fill:#1C2F5C;}
	.st16{clip-path:url(#SVGID_22_);}
	.st17{fill:#0D0802;}
</style>
<g id="HG_FARBE">
	<rect class="st1" width="200" height="200"/>
</g>
<g id="ILLUS">
	<g>
		<defs>
			<rect id="SVGID_19_" width="200" height="200"/>
		</defs>
		<clipPath id="SVGID_2_">
			<use xlink:href="#SVGID_19_"  style="overflow:visible;"/>
		</clipPath>
		<path class="st5" d="M62.1,171.7c0,15.6,12.7,28.3,28.3,28.3s28.3-12.7,28.3-28.3c0-7.8-3.2-14.9-8.3-20l6.6-8.7
			c14.7,14.8,11.7,30.9,11.6,31.8c-0.2,1.1,0.1,2.3,0.8,3.2c0.7,0.9,1.8,1.4,3,1.4h31.9c1.1,0,2.2-0.5,3-1.4s1-2.1,0.8-3.2
			c-0.2-1-2.9-16.5,8.8-30.5l7.6,8.7c-4.3,5-7,11.5-7,18.6c0,15.6,12.7,28.3,28.3,28.3s28.3-12.7,28.3-28.3s-12.7-28.3-28.3-28.3
			c-5.7,0-11.1,1.7-15.5,4.7l-8-9.1c6.4-5.4,15.5-10.2,28.5-13.4c1.6-0.4,2.7-1.7,2.9-3.3s-0.7-3.1-2.1-3.8
			c-0.9-0.5-19.2-9.1-50,1.3c-5-4.1-19.2-13.6-37.6-6.5c0-0.1-0.1-0.3-0.1-0.4c-1.9-6.6,1-11.7,1.1-11.9c0.8-1.3,0.7-3-0.2-4.2
			c-0.9-1.2-2.4-1.8-3.9-1.5c-18.7,4.3-30.5,26.1-31,27c-0.5,1-0.6,2.1-0.2,3.2c0.4,1,1.2,1.8,2.2,2.2c8.1,3,14.5,6.6,19.5,10.4
			l-6.9,9.1c-4.1-2.3-8.8-3.7-13.9-3.7C74.8,143.4,62.1,156.1,62.1,171.7z M153,123c-4.3,1.8-8.9,4-13.6,6.7
			c-5.2-3-9.2-6.2-11.9-9.7C138.7,116.1,147.8,119.7,153,123z M189.4,159l13.3,15.2c0.8,0.9,1.8,1.3,2.9,1.3c0.9,0,1.8-0.3,2.5-0.9
			c1.6-1.4,1.8-3.8,0.4-5.4L195.1,154c3.1-1.8,6.6-2.9,10.4-2.9c11.4,0,20.6,9.3,20.6,20.6c0,11.4-9.3,20.6-20.6,20.6
			c-11.4,0-20.6-9.3-20.6-20.6C184.9,166.9,186.6,162.5,189.4,159z M98.6,122.2c3.1-4.6,9.1-12.5,16.9-16.8
			c-0.3,2.7-0.3,5.8,0.7,9.3c0.5,1.7,1.2,3.4,2.1,5.1c0,0,0,0.1,0,0.2c0,0.1,0.1,0.1,0.1,0.1c3.5,6.6,9.9,12.4,19.2,17.3
			c1.2,0.6,2.6,0.6,3.7-0.1c24.1-13.9,42.6-15.8,53.9-14.8c-9.1,3.7-15.8,8.3-20.9,13.2c0,0-0.1,0-0.1,0.1c-0.1,0.1-0.1,0.1-0.1,0.2
			c-13.1,13-14.4,28.3-14.2,35.8h-23.5C136.6,161.6,133.3,137,98.6,122.2z M69.8,171.7c0-11.4,9.3-20.6,20.6-20.6
			c3.3,0,6.4,0.8,9.2,2.2l-12.2,16.1c-1.3,1.7-0.9,4.1,0.7,5.4c0.7,0.5,1.5,0.8,2.3,0.8c1.2,0,2.3-0.5,3.1-1.5l12.2-16.1
			c3.3,3.7,5.4,8.5,5.4,13.8c0,11.4-9.3,20.6-20.6,20.6C79,192.3,69.8,183.1,69.8,171.7z"/>
	</g>
</g>
</svg>
