<?xml version="1.0" encoding="utf-8"?>
<!-- Generator: Adobe Illustrator 25.4.1, SVG Export Plug-In . SVG Version: 6.00 Build 0)  -->
<svg version="1.1" id="Ebene_1" xmlns="http://www.w3.org/2000/svg" xmlns:xlink="http://www.w3.org/1999/xlink" x="0px" y="0px"
	 viewBox="0 0 200 200" style="enable-background:new 0 0 200 200;" xml:space="preserve">
<style type="text/css">
	.st0{fill:#1E5587;}
	.st1{fill:none;stroke:#1E2D5A;stroke-width:9;stroke-miterlimit:10;}
	.st2{fill:#1E2D5A;}
	.st3{fill:none;stroke:#1E2D5A;stroke-width:8;stroke-miterlimit:10;}
</style>
<rect y="0" class="st0" width="200" height="200"/>
<g>
	<g>
		<defs>
			<rect id="SVGID_1_" y="0" width="200" height="200"/>
		</defs>
		<clipPath id="SVGID_00000140733725823685277160000013975695484698514101_">
			<use xlink:href="#SVGID_1_"  style="overflow:visible;"/>
		</clipPath>
	</g>
</g>
<g>
	<g>
		<defs>
			<rect id="SVGID_00000128471895179261940550000008726386021519064243_" y="0" width="200" height="200"/>
		</defs>
		<clipPath id="SVGID_00000047754807162257921190000009473640786246093226_">
			<use xlink:href="#SVGID_00000128471895179261940550000008726386021519064243_"  style="overflow:visible;"/>
		</clipPath>
	</g>
</g>
<g>
	<g>
		<defs>
			<rect id="SVGID_00000005262064815787093190000006015600138333381002_" y="0" width="200" height="200"/>
		</defs>
		<clipPath id="SVGID_00000140007395615048549950000003877398567269163943_">
			<use xlink:href="#SVGID_00000005262064815787093190000006015600138333381002_"  style="overflow:visible;"/>
		</clipPath>
	</g>
</g>
<path class="st1" d="M71.4,183.1c9.1,8.6,24.5,12.6,37,12.6c35.8,0,64.9-29,64.9-64.9h-64.9V65.9c-31.1,0-57,21.8-63.4,51"/>
<path class="st1" d="M130.6,43.9v64.9h64.9C195.4,72.9,166.4,43.9,130.6,43.9z"/>
<path class="st2" d="M54.8,166.5c-1.2,5.7-5.3,9.2-10.7,9.2c-3.1,0-5.6-0.9-7.7-3.1c-1.9-1.9-2.7-3.9-2.9-8.3h16v-6.1H33.3v-3.5
	h16.2v-6.1h-16c0.3-4.2,1-6.1,2.9-8c2.1-2.1,4.7-3.1,7.7-3.1c5.5,0,9.5,3.4,10.7,9.2l0.3,1.5h7.2l-0.3-2.1
	c-1.8-9.4-8.3-15.3-17.8-15.4c-4.9,0-9.4,1.8-12.8,5.2c-3.8,3.8-4.7,7.3-5.2,12.8h-4.5v6.2H26v3.5h-4.2v6.1h4.4
	c0.3,5.8,1.3,9.4,5.2,13.1c3.3,3.4,7.7,5.2,12.8,5.2c9.4,0,15.9-5.7,17.8-15.4l0.3-2.1h-7.2L54.8,166.5z"/>
<g>
	<path class="st2" d="M42,198.8c-23.2,0-42-18.8-42-42s18.7-42,42-42s42,18.8,42,42S65.2,198.8,42,198.8z M42,122.1
		c-19.2,0-34.8,15.6-34.8,34.8s15.6,34.8,34.8,34.8s34.8-15.6,34.8-34.8S61.2,122.1,42,122.1z"/>
</g>
<path class="st3" d="M433.8,41.6c-12.1-11.3-28.3-18.2-46.1-18.2v64.3L433.8,41.6z"/>
<path class="st3" d="M420,77.4l-46.1,46.1V59.1c-37.3,0-67.5,30.2-67.5,67.5s30.2,67.5,67.5,67.5s67.5-30.2,67.5-67.5
	C441.4,107.2,433.2,89.7,420,77.4z"/>
</svg>
