<?xml version="1.0" encoding="utf-8"?>
<!-- Generator: Adobe Illustrator 25.0.0, SVG Export Plug-In . SVG Version: 6.00 Build 0)  -->
<svg version="1.1" xmlns="http://www.w3.org/2000/svg" xmlns:xlink="http://www.w3.org/1999/xlink" x="0px" y="0px"
	 viewBox="0 0 141.7 141.7" style="enable-background:new 0 0 141.7 141.7;" xml:space="preserve">
<style type="text/css">
	.st0{fill:#C30A32;}
	.st1{display:none;}
</style>
<g id="HILFE_2">
</g>
<g id="ILLUS">
	<g>
		<rect x="70.1" y="33.3" class="st0" width="2.6" height="7.1"/>
		
			<rect x="50.7" y="41.4" transform="matrix(0.7071 -0.7071 0.7071 0.7071 -16.545 49.9503)" class="st0" width="2.6" height="7.1"/>
		<rect x="40.5" y="63" class="st0" width="7.1" height="2.6"/>
		
			<rect x="48.6" y="82.4" transform="matrix(0.7071 -0.7071 0.7071 0.7071 -43.8582 61.3795)" class="st0" width="7.1" height="2.6"/>
		
			<rect x="89.6" y="79.9" transform="matrix(0.7071 -0.7071 0.7071 0.7071 -32.4286 88.692)" class="st0" width="2.6" height="7.1"/>
		<rect x="95.2" y="62.8" class="st0" width="7.1" height="2.6"/>
		
			<rect x="87.2" y="43.5" transform="matrix(0.7071 -0.7071 0.7071 0.7071 -5.1153 77.2631)" class="st0" width="7.1" height="2.6"/>
		<path class="st0" d="M92.7,64.2c0-11.7-9.5-21.3-21.3-21.3c-11.7,0-21.3,9.5-21.3,21.3c0,8.4,4.9,15.7,12,19.1h-0.1v2.6h18.7v-2.6
			h-0.1C87.8,79.9,92.7,72.7,92.7,64.2z"/>
		<rect x="62.1" y="88.5" class="st0" width="18.7" height="2.6"/>
		<rect x="62.1" y="93.6" class="st0" width="18.7" height="2.6"/>
		<polygon class="st0" points="71.4,103.8 80.8,98.7 62.1,98.7 		"/>
	</g>
</g>
<g id="HILFE">
</g>
<g id="HILFSLINIEN_GROSS" class="st1">
</g>
<g id="HILFSLINIEN_KLEIN" class="st1">
</g>
</svg>
